<?xml version="1.0" encoding="UTF-8"?>
<svg version="1.1" xmlns="http://www.w3.org/2000/svg" width="512" height="512">
<path d="M0 0 C8.62744763 -0.26933623 16.99263913 0.63996614 25.54321289 1.65405273 C27.95579598 1.93966597 30.36935117 2.21557235 32.78320312 2.49023438 C34.32298214 2.66870687 35.86269821 2.84772344 37.40234375 3.02734375 C38.12107162 3.10967758 38.8397995 3.19201141 39.58030701 3.27684021 C42.53324915 3.6304011 45.16868458 4.05622819 48 5 C45.73636641 11.90515356 43.30988349 18.73872703 40.8125 25.5625 C40.44447266 26.57119141 40.07644531 27.57988281 39.69726562 28.61914062 C38.79928712 31.07983496 37.90017838 33.54010977 37 36 C55.16883939 23.30611711 55.16883939 23.30611711 72 9 C80.98497255 8.29059763 90.1977499 9.42641933 99.15576172 10.171875 C101.65392029 10.37737905 104.15296735 10.56776438 106.65234375 10.7578125 C108.23965814 10.8871057 109.82690101 11.01728065 111.4140625 11.1484375 C112.53574326 11.23138565 112.53574326 11.23138565 113.68008423 11.31600952 C115.46119035 11.47174995 117.23316886 11.72631804 119 12 C119.33 12.66 119.66 13.32 120 14 C119.24517822 16.02189636 119.24517822 16.02189636 117.99316406 18.54370117 C117.52807434 19.49037155 117.06298462 20.43704193 116.58380127 21.41239929 C116.0663031 22.44548721 115.54880493 23.47857513 115.015625 24.54296875 C114.48539734 25.61758865 113.95516968 26.69220856 113.40887451 27.7993927 C111.69669417 31.26583695 109.97373645 34.7267898 108.25 38.1875 C106.02342945 42.67969807 103.80097969 47.17393112 101.578125 51.66796875 C100.75374939 53.33132767 100.75374939 53.33132767 99.91271973 55.02828979 C94.88800347 65.18221108 89.9908217 75.39500677 85.14007568 85.63301086 C83.78975287 88.43650845 82.39161564 91.21676872 81 94 C101.295 94.495 101.295 94.495 122 95 C122.96618605 105.62804655 123 116.32812627 123 127 C107.82 127.33 92.64 127.66 77 128 C85.415 133.94 85.415 133.94 94 140 C101.33589615 146.07315993 108.42599407 152.12335441 115 159 C117.5067182 161.52334651 120.02853235 164.0277542 122.578125 166.5078125 C128.86857521 172.6695108 134.56192943 179.05880077 140 186 C140.7321875 186.90363281 141.464375 187.80726563 142.21875 188.73828125 C155.40308729 205.32857235 166.83910712 223.42346221 177 242 C177.47888672 242.86882812 177.95777344 243.73765625 178.45117188 244.6328125 C203.33857431 290.07093087 228.92974889 351.32022239 215 404 C210.08548446 420.77926645 202.49567127 434.77332032 191 448 C190.14345208 449.08145156 189.28881802 450.16442668 188.4375 451.25 C185.23243314 454.86597286 181.69523259 457.89727884 178 461 C177.23171875 461.67933594 176.4634375 462.35867188 175.671875 463.05859375 C145.25288434 489.23198909 104.4100831 501.76448628 65.5 508.1875 C64.09693604 508.4201355 64.09693604 508.4201355 62.66552734 508.6574707 C43.27920632 511.66863535 24.03254155 512.37094072 4.4375 512.3125 C3.20187317 512.31100952 1.96624634 512.30951904 0.69317627 512.3079834 C-17.06227644 512.26945272 -34.44844024 511.8862428 -52 509 C-53.41200684 508.7831958 -53.41200684 508.7831958 -54.85253906 508.56201172 C-96.51864128 502.09954344 -137.48292449 488.64498844 -170 461 C-170.80695313 460.33871094 -171.61390625 459.67742187 -172.4453125 458.99609375 C-193.59839159 440.99276782 -206.97116728 414.51910868 -210 387 C-212.06587406 346.10462267 -199.76037383 306.87935668 -183 270 C-182.5673584 269.03900391 -182.1347168 268.07800781 -181.68896484 267.08789062 C-171.30982999 244.19809196 -158.83077988 222.31367426 -144 202 C-143.6076416 201.45891602 -143.2152832 200.91783203 -142.81103516 200.36035156 C-134.99858436 189.62763347 -126.59657471 179.50639544 -117.56640625 169.7890625 C-115.42501785 167.46189155 -113.35657371 165.09941385 -111.3125 162.6875 C-108.48325459 159.42917471 -105.43354029 156.61592719 -102.140625 153.83203125 C-99.84389652 151.86640049 -97.64874011 149.81113937 -95.4375 147.75 C-87.26075754 140.35923899 -78.15641756 134.10427838 -69 128 C-80.55 127.67 -92.1 127.34 -104 127 C-104 116.11 -104 105.22 -104 94 C-91.13 94 -78.26 94 -65 94 C-67.10375 89.771875 -69.2075 85.54375 -71.375 81.1875 C-72.3347876 79.2542688 -72.3347876 79.2542688 -73.31396484 77.28198242 C-77.13946345 69.61340584 -81.07861131 62.01225636 -85.08319092 54.43574524 C-89.55126723 45.97564102 -93.93370643 37.47233031 -98.29931641 28.95898438 C-99.65697969 26.3126661 -101.01792232 23.66804925 -102.37890625 21.0234375 C-103.24498872 19.33603862 -104.11088194 17.6485426 -104.9765625 15.9609375 C-105.38266754 15.17262543 -105.78877258 14.38431335 -106.20718384 13.57211304 C-109 8.11445136 -109 8.11445136 -109 7 C-102.6665656 6.97850969 -96.33344495 6.98437111 -90 7 C-88.98917358 7.00114807 -87.97834717 7.00229614 -86.93688965 7.003479 C-80.37950242 7.01762284 -73.82721358 7.1015526 -67.27148438 7.25024414 C-64.9895369 7.2920711 -62.70713449 7.31357432 -60.42480469 7.31567383 C-41.46392407 7.35208519 -41.46392407 7.35208519 -35.70776367 11.2019043 C-33.37208527 14.01459618 -31.70170158 16.77056358 -30 20 C-28.73500366 21.7619821 -27.44511855 23.50640904 -26.12890625 25.23046875 C-24.31477026 27.74189479 -22.51076171 30.26010844 -20.71289062 32.78320312 C-20.12830078 33.59080078 -19.54371094 34.39839844 -18.94140625 35.23046875 C-18.16325562 36.31944458 -18.16325562 36.31944458 -17.36938477 37.43041992 C-16.69153931 38.20736206 -16.69153931 38.20736206 -16 39 C-15.34 39 -14.68 39 -14 39 C-13.61142822 37.88963379 -13.22285645 36.77926758 -12.82250977 35.63525391 C-11.38325442 31.52361939 -9.9422594 27.41259639 -8.50073242 23.30175781 C-7.87655777 21.52100036 -7.2528578 19.74007646 -6.62963867 17.95898438 C-5.73480374 15.40190636 -4.83827473 12.84542786 -3.94140625 10.2890625 C-3.6622084 9.49005524 -3.38301056 8.69104797 -3.09535217 7.86782837 C-1.11387171 2.22774341 -1.11387171 2.22774341 0 0 Z M-5 205 C-5 214.57 -5 224.14 -5 234 C-8.96 234.495 -8.96 234.495 -13 235 C-27.82583187 239.65062937 -41.45536281 247.59581115 -49.3125 261.4375 C-55.68361329 274.02391132 -57.57835559 286.15043856 -54 300 C-48.1447223 315.90420023 -36.13674589 325.69626783 -21.28125 332.8359375 C-14.61237311 335.89282682 -7.77185975 338.47429178 -0.89868164 341.02954102 C22.95684049 349.91368098 22.95684049 349.91368098 28 360 C28.50502343 365.53042052 28.73807257 370.41030524 26.375 375.5 C20.35807531 381.83360493 13.68889016 383.97549922 5.15234375 384.30078125 C3.4141663 384.32017537 1.67575064 384.32352991 -0.0625 384.3125 C-1.44622803 384.30512817 -1.44622803 384.30512817 -2.85791016 384.29760742 C-17.04335919 384.05728053 -31.5730159 380.71905697 -44.30859375 374.34375 C-46.79686046 372.85110196 -46.79686046 372.85110196 -49 373 C-50.16827769 377.35718536 -51.32561834 381.71707318 -52.47290039 386.07983398 C-52.86475839 387.56370206 -53.25959825 389.04678601 -53.6574707 390.52905273 C-54.22872336 392.65930451 -54.78920704 394.79214235 -55.34765625 396.92578125 C-55.52780777 397.58838455 -55.70795929 398.25098785 -55.89356995 398.93367004 C-56.73213003 402.18037293 -57.08531618 403.74405147 -56 407 C-42.46514277 415.45928577 -22.79636736 419 -7 419 C-7 428.24 -7 437.48 -7 447 C2.24 447 11.48 447 21 447 C21.33 437.1 21.66 427.2 22 417 C24.2275 416.46375 26.455 415.9275 28.75 415.375 C44.67610402 411.25546165 59.19289414 402.44076772 67.76171875 388.0390625 C72.21112628 379.48499573 74.38375901 371.77855016 74.3125 362.1875 C74.30758545 361.39996338 74.3026709 360.61242676 74.29760742 359.80102539 C74.03466748 346.66077012 69.42977379 335.88167632 60.4765625 326.2578125 C48.73347814 315.55197218 33.45553904 309.71767084 18.875 304 C-5.24925591 294.50148818 -5.24925591 294.50148818 -10 285 C-10.37155705 279.42664432 -10.24782829 275.76348149 -7 271 C-0.42101896 265.49201587 7.23056392 264.62446519 15.5 264.6875 C16.27827148 264.69241455 17.05654297 264.6973291 17.85839844 264.70239258 C29.89385594 264.94041633 41.02274947 267.64869053 52.20703125 272.01171875 C54.97758391 273.16678933 54.97758391 273.16678933 58 273 C60.64 262.44 63.28 251.88 66 241 C58.26031251 237.77513021 51.93679436 235.16932598 43.9375 233.6875 C43.12990234 233.51927734 42.32230469 233.35105469 41.49023438 233.17773438 C35.05443947 231.9273222 29.79397751 232 23 232 C23 223.09 23 214.18 23 205 C13.76 205 4.52 205 -5 205 Z " fill="#00FF00" transform="translate(252,0)"/>
</svg>
