<?xml version="1.0" encoding="UTF-8"?>
<svg version="1.1" xmlns="http://www.w3.org/2000/svg" width="512" height="512">
<path d="M0 0 C0.79841309 0.22042969 1.59682617 0.44085938 2.41943359 0.66796875 C38.80600543 11.03084248 68.79313407 34.0419265 87.4375 67.0625 C103.84469715 97.29653392 108.44964284 134.80589717 99 168 C98.81808105 168.66692871 98.63616211 169.33385742 98.44873047 170.02099609 C93.29136153 188.51654708 83.40012951 205.4528516 71 220 C70.18789063 220.9590625 69.37578125 221.918125 68.5390625 222.90625 C52.04853762 241.89095908 29.68998445 255.07791954 5.75 262.375 C4.58198853 262.73295654 4.58198853 262.73295654 3.39038086 263.09814453 C-8.53387891 266.5341798 -20.38539092 267.38246595 -32.75 267.3125 C-33.45476471 267.31001251 -34.15952942 267.30752502 -34.88565063 267.30496216 C-45.51263853 267.24701292 -55.70884914 266.90207046 -66 264 C-66.79841309 263.77957031 -67.59682617 263.55914062 -68.41943359 263.33203125 C-91.58400493 256.7347753 -110.51441228 245.50129967 -128 229 C-128.73734375 228.32710937 -129.4746875 227.65421875 -130.234375 226.9609375 C-145.09653642 212.88931658 -155.40042503 194.56606263 -161.9375 175.3125 C-162.20788086 174.5189209 -162.47826172 173.7253418 -162.75683594 172.90771484 C-167.02996463 159.4898741 -168.56268329 146.2596174 -168.4375 132.25 C-168.43412628 131.51087372 -168.43075256 130.77174744 -168.42727661 130.01022339 C-168.19104941 94.13508945 -154.53240369 62.99574005 -130 37 C-129.32710938 36.26265625 -128.65421875 35.5253125 -127.9609375 34.765625 C-111.26945108 17.13641462 -89.13582926 6.38744994 -66 0 C-64.9783374 -0.28810547 -64.9783374 -0.28810547 -63.93603516 -0.58203125 C-44.71755842 -5.71348695 -19.10354581 -5.38713665 0 0 Z M-45 33 C-48.06046307 39.17448031 -48.39230414 45.29346076 -48.1875 52.0625 C-48.17396484 52.92810547 -48.16042969 53.79371094 -48.14648438 54.68554688 C-48.1115933 56.79064174 -48.05780665 58.89540974 -48 61 C-48.73476563 61.11085937 -49.46953125 61.22171875 -50.2265625 61.3359375 C-57.46394127 63.06883101 -64.5755297 69.12438462 -69 75 C-76.2065926 87.61153704 -79.31731019 99.77097691 -76.31640625 114.3125 C-72.11617584 126.58205273 -63.64040798 136.87030859 -52.0625 142.875 C-46.15397625 145.35030694 -39.95884638 146.16227494 -33.63696289 146.92529297 C-29.12189239 147.49703201 -25.63432772 148.03621245 -22 151 C-19.16521573 154.6641753 -18.58987803 157.41072985 -18.625 162 C-18.61339844 163.5159375 -18.61339844 163.5159375 -18.6015625 165.0625 C-19.21111979 169.55649101 -20.73341223 172.03467767 -24.33203125 174.77734375 C-29.15885861 176.98934516 -33.81616697 176.7830759 -39 176 C-45.65764346 173.39234338 -50.54646221 168.85617399 -55.30859375 163.63671875 C-58.36402185 160.68008048 -61.82717877 160.66560307 -65.9375 160.7109375 C-70.40348133 161.33685155 -74.18516869 164.59257262 -77 168 C-78.7200523 173.16015691 -78.93658308 178.04539183 -76.5625 183 C-75.716875 183.99 -74.87125 184.98 -74 186 C-73.12021484 187.03253906 -73.12021484 187.03253906 -72.22265625 188.0859375 C-66.15447862 194.70782222 -59.07184856 199.19232851 -51 203 C-50.01 203 -49.02 203 -48 203 C-48.02320313 204.29035156 -48.04640625 205.58070313 -48.0703125 206.91015625 C-48.08908236 208.62759834 -48.10728125 210.34504674 -48.125 212.0625 C-48.14175781 212.91005859 -48.15851563 213.75761719 -48.17578125 214.63085938 C-48.22650131 221.19910746 -48.03493351 226.65199979 -43.5625 231.8125 C-38.94907617 235.75078863 -36.40981587 236.4454588 -30.5078125 236.31640625 C-26.80778087 235.84957983 -24.74186303 234.4743642 -22 232 C-19.40292963 228.36255676 -18.6324359 225.93132453 -18.70703125 221.48046875 C-18.71669922 220.45888672 -18.72636719 219.43730469 -18.73632812 218.38476562 C-18.76146484 217.32966797 -18.78660156 216.27457031 -18.8125 215.1875 C-18.82603516 214.11306641 -18.83957031 213.03863281 -18.85351562 211.93164062 C-18.88877423 209.28724545 -18.93805634 206.64388252 -19 204 C-17.64841797 203.58234375 -17.64841797 203.58234375 -16.26953125 203.15625 C-6.4744961 199.69229492 1.62196559 192.07241899 6.640625 183.05078125 C11.77606293 171.99778409 13.39791401 158.68908284 9.375 146.9375 C4.12908841 135.00669413 -4.45585547 125.09722411 -16.66015625 119.984375 C-21.80343801 118.46846038 -27.04501903 117.71656379 -32.36303711 117.07470703 C-36.87810761 116.50296799 -40.36567228 115.96378755 -44 113 C-46.83478427 109.3358247 -47.41012197 106.58927015 -47.375 102 C-47.38273437 100.989375 -47.39046875 99.97875 -47.3984375 98.9375 C-46.78888021 94.44350899 -45.26658777 91.96532233 -41.66796875 89.22265625 C-36.8503913 87.01489382 -32.17338541 87.19467849 -27 88 C-23.3344667 89.58412558 -20.21520369 91.64755222 -17 94 C-11.99108306 97.53376338 -8.84136392 99.4132893 -2.5625 98.5 C2.43918054 96.39402924 5.5774705 92.84505901 8 88 C8.37400849 83.5118981 8.48895954 80.99829239 6.5 76.9375 C-0.48071326 68.73516192 -8.37428117 64.44783918 -18 60 C-18.01401855 59.00202393 -18.01401855 59.00202393 -18.02832031 57.98388672 C-18.08226019 54.94685981 -18.16586062 51.91133421 -18.25 48.875 C-18.26417969 47.82828125 -18.27835938 46.7815625 -18.29296875 45.703125 C-18.48838493 39.52797376 -18.8708423 35.70136308 -23 31 C-26.79705134 27.64966058 -30.60465532 27.4154119 -35.49609375 27.59765625 C-39.69377217 28.2721662 -42.20222407 29.84660883 -45 33 Z " fill="#383838" transform="translate(409,184)"/>
<path d="M0 0 C3.21868396 1.41126912 5.44835884 3.61298085 8 6 C9.10666142 6.96167193 10.21775619 7.91825405 11.33203125 8.87109375 C13.92240541 11.08917819 16.49983588 13.32081545 19.06640625 15.56640625 C22.71267826 18.75432047 26.38201934 21.91418712 30.0625 25.0625 C30.92222412 25.79847412 30.92222412 25.79847412 31.79931641 26.54931641 C32.95479957 27.53838399 34.11039819 28.52731671 35.26611328 29.51611328 C38.17894046 32.00895524 41.08934061 34.50462766 44 37 C45.16665518 38.0000134 46.33332184 39.00001341 47.5 40 C59.16666667 50 70.83333333 60 82.5 70 C83.0782251 70.49556396 83.6564502 70.99112793 84.25219727 71.50170898 C85.41176982 72.49574401 86.57111457 73.49004483 87.73022461 74.48461914 C90.7535596 77.07817674 93.78142649 79.66616814 96.81640625 82.24609375 C97.75709961 83.04756836 97.75709961 83.04756836 98.71679688 83.86523438 C99.9080305 84.87998894 101.10064117 85.89313023 102.29492188 86.90429688 C113.70682859 96.63758386 113.70682859 96.63758386 114.3359375 101.70703125 C114.46904882 112.28938098 114.46904882 112.28938098 110 117 C105.10094383 121.17645943 99.44097322 120.37943494 93.35546875 120.29296875 C92.2305452 120.28872391 91.10562164 120.28447906 89.9466095 120.28010559 C86.35999438 120.2633369 82.77394479 120.22568688 79.1875 120.1875 C76.75326333 120.17245087 74.31901784 120.15876287 71.88476562 120.14648438 C65.92298471 120.11343925 59.96153277 120.06325728 54 120 C54.04219162 120.59975647 54.08438324 121.19951294 54.12785339 121.81744385 C54.55111407 128.11045731 54.83576591 134.39940342 55.04370117 140.703125 C55.13876377 143.04789479 55.2680905 145.39155202 55.43334961 147.73242188 C56.73583794 166.66890852 56.73583794 166.66890852 52.18557739 172.209198 C47.68140826 176.00306454 42.67783535 178.50526512 37.32258606 180.88171387 C23.18733423 187.68759993 10.38122332 201.76510766 1 214 C-0.10794922 215.38445312 -0.10794922 215.38445312 -1.23828125 216.796875 C-7.43597593 224.71793555 -12.36736557 233.10326078 -17 242 C-17.32242676 242.61746094 -17.64485352 243.23492187 -17.97705078 243.87109375 C-23.2622422 254.15937847 -27.03451146 264.82992064 -30 276 C-30.21317871 276.79631836 -30.42635742 277.59263672 -30.64599609 278.41308594 C-36.8273703 302.73662188 -36.648683 331.81270552 -30 356 C-29.7421875 356.94665527 -29.484375 357.89331055 -29.21875 358.86865234 C-22.27178567 383.46042363 -10.49150505 406.10159617 6.98046875 424.828125 C8.75084138 426.73204605 10.41385768 428.67891151 12.0625 430.6875 C15.36781259 434.5496859 19.07074142 437.78515207 23 441 C23.91394531 441.75152344 24.82789063 442.50304687 25.76953125 443.27734375 C27.30673828 444.50130859 27.30673828 444.50130859 28.875 445.75 C29.40770508 446.19375977 29.94041016 446.63751953 30.48925781 447.09472656 C33.82681741 449.75060445 36.7589882 451.36311863 40.83984375 452.64453125 C46.5213466 454.6824375 50.96686025 456.54128895 54 462 C55.65754022 468.78500712 55.48331405 475.87319984 55.375 482.8125 C55.36135406 483.74893341 55.34770813 484.68536682 55.33364868 485.650177 C55.27038661 488.38092545 55.16140167 491.10409552 55.0234375 493.83203125 C54.9868251 494.66309387 54.95021271 495.49415649 54.91249084 496.35040283 C54.53265355 501.58216583 53.52574903 504.90040757 50 509 C16.83252046 528.90048773 -27.32040446 512 -66 512 C-66 382.64 -66 253.28 -66 120 C-82.83 120 -99.66 120 -117 120 C-124.13422347 115.24385102 -124.13422347 115.24385102 -126 111 C-126.78506051 105.74504545 -126.71894526 100.74600992 -124.6875 95.8125 C-121.34739936 92.31704584 -117.71756011 89.35461988 -113.9296875 86.35546875 C-111.19245741 84.15473575 -108.59007845 81.87079066 -106 79.5 C-101.70008209 75.58108748 -97.24080453 71.90829131 -92.71875 68.25 C-90.07852271 66.06498431 -87.5327028 63.80828609 -85 61.5 C-80.70008209 57.58108748 -76.24080453 53.90829131 -71.71875 50.25 C-69.07852271 48.06498431 -66.5327028 45.80828609 -64 43.5 C-59.70008209 39.58108748 -55.24080453 35.90829131 -50.71875 32.25 C-48.07852271 30.06498431 -45.5327028 27.80828609 -43 25.5 C-38.70814216 21.58843336 -34.25940902 17.92048604 -29.7421875 14.2734375 C-26.14089467 11.28775028 -22.70870461 8.136216 -19.2890625 4.9453125 C-13.11305341 -0.3032413 -7.97776004 -1.21765811 0 0 Z " fill="#383838" transform="translate(247,0)"/>
<path d="M0 0 C0 99.33 0 198.66 0 301 C-19.8 301 -39.6 301 -60 301 C-60.08816299 263.90304837 -60.16202683 226.80619545 -60.20426132 189.70916905 C-60.20926421 185.33068934 -60.2144415 180.95220985 -60.21972656 176.57373047 C-60.2207758 175.70204482 -60.22182505 174.83035917 -60.22290608 173.9322588 C-60.24031685 159.81338385 -60.27185824 145.69457397 -60.30861118 131.57573764 C-60.34600192 117.09121378 -60.3682319 102.60672402 -60.37635398 88.12215388 C-60.38184563 79.18256577 -60.39919775 70.24316157 -60.43166587 61.30363007 C-60.45279072 55.17554263 -60.45920466 49.04755044 -60.45400551 42.91942923 C-60.45144054 39.38244432 -60.45540448 35.84578104 -60.4768219 32.30885315 C-60.49986925 28.47477477 -60.49196059 24.64111649 -60.48101807 20.80697632 C-60.49849512 19.12895654 -60.49849512 19.12895654 -60.51632524 17.41703737 C-60.47035634 11.47714031 -60.24104772 7.55159139 -56 3 C-39.97051328 -6.61769203 -18.69343319 0 0 0 Z " fill="#383838" transform="translate(151,211)"/>
<path d="M0 0 C0 59.73 0 119.46 0 181 C-52 181 -52 181 -58 177 C-61.07993837 173.12557344 -61.37770741 170.13334775 -61.38768005 165.25099182 C-61.39306559 164.58533406 -61.39845113 163.91967629 -61.40399987 163.23384708 C-61.41827017 161.0106073 -61.41117839 158.7879637 -61.40405273 156.56469727 C-61.40975682 154.96779909 -61.41672123 153.370905 -61.42485046 151.77401733 C-61.44279296 147.4413453 -61.44161145 143.10887567 -61.43590808 138.77617764 C-61.43281777 135.15783954 -61.43890693 131.5395404 -61.44494683 127.92120785 C-61.45899405 119.38453203 -61.45742915 110.84795628 -61.44604492 102.3112793 C-61.43456343 93.50717038 -61.44863938 84.70336607 -61.4754414 75.8992973 C-61.49759931 68.33736004 -61.50423557 60.7755184 -61.49836498 53.21355098 C-61.49499442 48.69845628 -61.49741703 44.18355684 -61.51461601 39.66848946 C-61.53008457 35.42237479 -61.52613082 31.17671131 -61.50731087 26.93061447 C-61.5036247 25.37378844 -61.50673431 23.81692898 -61.51719666 22.26013374 C-61.53040758 20.13156735 -61.51886082 18.00449447 -61.50120544 15.87599182 C-61.50099616 14.68599862 -61.50078688 13.49600542 -61.50057125 12.26995182 C-60.88208988 8.22975916 -59.59502128 6.13716498 -57 3 C-40.68508441 -6.78894935 -19.02629759 0 0 0 Z " fill="#383838" transform="translate(61,331)"/>
</svg>
