<?xml version="1.0" encoding="UTF-8"?>
<svg version="1.1" xmlns="http://www.w3.org/2000/svg" width="1080" height="1080">
<path d="M0 0 C3.91988057 0.00766798 7.83972589 -0.00219238 11.75960134 -0.00973 C18.61768824 -0.02052719 25.47570419 -0.02025978 32.33379429 -0.01258852 C42.53229039 -0.00121195 52.73072697 -0.0070574 62.92922271 -0.01621344 C81.14704152 -0.03199094 99.36482873 -0.03064931 117.58265053 -0.0219767 C133.52618028 -0.01442423 149.46969846 -0.01246264 165.41322963 -0.01604463 C166.47160431 -0.01627379 167.52997899 -0.01650294 168.62042563 -0.01673904 C172.91693515 -0.01767309 177.21344467 -0.01862829 181.50995418 -0.01961833 C221.79958644 -0.02879155 262.0891986 -0.02048107 302.37882777 -0.00432764 C338.15644899 0.00990771 373.93403818 0.00863571 409.71165912 -0.00571062 C449.92701397 -0.0217826 490.14235106 -0.02813991 530.35770868 -0.01887383 C534.64661158 -0.01791171 538.93551448 -0.01697318 543.22441738 -0.01604463 C544.80842198 -0.01568879 544.80842198 -0.01568879 546.42442668 -0.01532575 C562.35538524 -0.01191657 578.28633094 -0.01589815 594.21728771 -0.02348329 C612.33636522 -0.03206735 630.45540623 -0.0299032 648.5744792 -0.01364106 C658.70901841 -0.00484465 668.84347855 -0.00423916 678.97801567 -0.01557958 C685.75455223 -0.0223247 692.53102561 -0.01808768 699.30755284 -0.00506528 C703.16381645 0.00204467 707.01992341 0.00456663 710.87618188 -0.00628323 C740.20493376 -0.0830735 740.20493376 -0.0830735 754.38573139 3.38540266 C754.38573139 3.71540266 754.38573139 4.04540266 754.38573139 4.38540266 C755.52912983 4.65094954 756.67252826 4.91649641 757.85057514 5.19009016 C759.3415643 5.54642719 760.83244418 5.9032217 762.32323139 6.26040266 C763.45535053 6.52143782 763.45535053 6.52143782 764.61034076 6.78774641 C766.55166684 7.25784331 768.47122683 7.81583236 770.38573139 8.38540266 C770.71573139 9.04540266 771.04573139 9.70540266 771.38573139 10.38540266 C773.37605724 11.32773772 775.40360168 12.19255078 777.44823139 13.01040266 C779.10532123 13.6794261 779.10532123 13.6794261 780.79588764 14.36196516 C781.65053608 14.69969954 782.50518451 15.03743391 783.38573139 15.38540266 C783.38573139 16.04540266 783.38573139 16.70540266 783.38573139 17.38540266 C783.92198139 17.48852766 784.45823139 17.59165266 785.01073139 17.69790266 C788.01075183 18.56632963 790.62368489 19.94160563 793.38573139 21.38540266 C793.38573139 22.04540266 793.38573139 22.70540266 793.38573139 23.38540266 C795.36573139 24.04540266 797.34573139 24.70540266 799.38573139 25.38540266 C799.38573139 26.04540266 799.38573139 26.70540266 799.38573139 27.38540266 C800.16948139 27.69477766 800.95323139 28.00415266 801.76073139 28.32290266 C804.38573139 29.38540266 804.38573139 29.38540266 806.38573139 30.38540266 C806.38573139 31.37540266 806.38573139 32.36540266 806.38573139 33.38540266 C807.19010639 33.47821516 807.19010639 33.47821516 808.01073139 33.57290266 C811.55599296 34.7857553 813.64497059 36.83151192 816.38573139 39.38540266 C816.38573139 40.04540266 816.38573139 40.70540266 816.38573139 41.38540266 C817.37573139 41.71540266 818.36573139 42.04540266 819.38573139 42.38540266 C821.13963764 44.09243391 821.13963764 44.09243391 822.94823139 46.19790266 C823.54764545 46.88497298 824.14705951 47.57204329 824.76463764 48.27993391 C826.38573139 50.38540266 826.38573139 50.38540266 827.47557514 52.58462141 C828.25305541 54.56761934 828.25305541 54.56761934 830.38573139 55.38540266 C833.40480684 58.11230952 835.40124817 60.84784562 837.38573139 64.38540266 C838.22104389 65.71571516 838.22104389 65.71571516 839.07323139 67.07290266 C840.38573139 69.38540266 840.38573139 69.38540266 840.38573139 71.38540266 C841.04573139 71.38540266 841.70573139 71.38540266 842.38573139 71.38540266 C842.38573139 72.37540266 842.38573139 73.36540266 842.38573139 74.38540266 C843.04573139 74.38540266 843.70573139 74.38540266 844.38573139 74.38540266 C845.64238117 77.29140527 846.38573139 79.18144851 846.38573139 82.38540266 C847.04573139 82.38540266 847.70573139 82.38540266 848.38573139 82.38540266 C848.38573139 83.70540266 848.38573139 85.02540266 848.38573139 86.38540266 C849.04573139 86.38540266 849.70573139 86.38540266 850.38573139 86.38540266 C850.38573139 87.70540266 850.38573139 89.02540266 850.38573139 90.38540266 C851.04573139 90.38540266 851.70573139 90.38540266 852.38573139 90.38540266 C853.80831951 94.20860824 854.62615415 97.29821571 854.38573139 101.38540266 C855.04573139 101.38540266 855.70573139 101.38540266 856.38573139 101.38540266 C856.38573139 103.36540266 856.38573139 105.34540266 856.38573139 107.38540266 C857.04573139 107.38540266 857.70573139 107.38540266 858.38573139 107.38540266 C860.02722035 113.6435017 860.67340153 119.44392656 860.63741367 125.90107344 C860.64032055 126.82048346 860.64322743 127.73989348 860.6462224 128.68716441 C860.65350751 131.76071679 860.64658592 134.83406861 860.63969867 137.90761946 C860.64200369 140.13636596 860.64518048 142.36511169 860.64915316 144.59385584 C860.65750416 150.7130167 860.65337446 156.8321152 860.64718073 162.95127629 C860.64312308 168.87444322 860.64844974 174.79759975 860.65347546 180.72076429 C860.6640016 193.58152585 860.66309628 206.44226753 860.65731763 219.30303098 C860.65228549 230.5577344 860.6509736 241.81243053 860.65336292 253.06713484 C860.65359207 254.18718856 860.65359207 254.18718856 860.65382586 255.32986963 C860.65444854 258.36101819 860.65508534 261.39216674 860.65574539 264.42331528 C860.66186267 292.85477792 860.6563176 321.2862279 860.64555159 349.71768859 C860.63606047 374.97444642 860.63690972 400.23118407 860.64647358 425.48794173 C860.65718405 453.86757878 860.66142883 482.24720464 860.65524905 510.62684344 C860.65460762 513.65245245 860.65398194 516.67806147 860.65336292 519.70367048 C860.65320476 520.44864643 860.65304661 521.19362238 860.65288366 521.96117336 C860.65060922 533.20849237 860.65326834 544.45580328 860.65832203 555.70312117 C860.66403996 568.49248816 860.66261211 581.28183217 860.65176054 594.0711963 C860.64640542 600.59779324 860.64445271 607.12435767 860.65105884 613.65095518 C860.65701355 619.62426087 860.65375099 625.59748759 860.64310374 631.5707861 C860.6408677 633.73284247 860.64201056 635.89490549 860.64685531 638.05695759 C860.65293369 640.99464398 860.64670165 643.93205962 860.63741367 646.86973189 C860.642096 647.70986267 860.64677833 648.54999346 860.65160256 649.41558276 C860.61652075 654.96448464 859.7929859 660.02031139 858.38573139 665.38540266 C857.72573139 665.38540266 857.06573139 665.38540266 856.38573139 665.38540266 C856.38573139 667.36540266 856.38573139 669.34540266 856.38573139 671.38540266 C855.72573139 671.38540266 855.06573139 671.38540266 854.38573139 671.38540266 C854.44760639 672.43727766 854.44760639 672.43727766 854.51073139 673.51040266 C854.36904807 676.76911895 853.51838452 679.34139736 852.38573139 682.38540266 C851.72573139 682.38540266 851.06573139 682.38540266 850.38573139 682.38540266 C850.38573139 683.70540266 850.38573139 685.02540266 850.38573139 686.38540266 C849.72573139 686.38540266 849.06573139 686.38540266 848.38573139 686.38540266 C848.38573139 687.70540266 848.38573139 689.02540266 848.38573139 690.38540266 C847.72573139 690.38540266 847.06573139 690.38540266 846.38573139 690.38540266 C846.38573139 691.70540266 846.38573139 693.02540266 846.38573139 694.38540266 C845.72573139 694.38540266 845.06573139 694.38540266 844.38573139 694.38540266 C844.38573139 695.70540266 844.38573139 697.02540266 844.38573139 698.38540266 C843.72573139 698.38540266 843.06573139 698.38540266 842.38573139 698.38540266 C842.38573139 699.37540266 842.38573139 700.36540266 842.38573139 701.38540266 C841.72573139 701.38540266 841.06573139 701.38540266 840.38573139 701.38540266 C840.11760639 702.31352766 839.84948139 703.24165266 839.57323139 704.19790266 C838.41657933 707.3026003 837.71914603 708.2386612 835.38573139 710.38540266 C834.89073139 711.23102766 834.39573139 712.07665266 833.88573139 712.94790266 C832.38573139 715.38540266 832.38573139 715.38540266 829.38573139 717.38540266 C828.3596119 719.03611662 827.36264996 720.70510272 826.38573139 722.38540266 C823.50988954 726.43288378 820.10609068 729.47714672 816.34666889 732.67055891 C814.65041344 734.15393768 813.11003818 735.6789851 811.57323139 737.32290266 C809.38573139 739.38540266 809.38573139 739.38540266 806.38573139 739.38540266 C806.38573139 740.37540266 806.38573139 741.36540266 806.38573139 742.38540266 C802.16350917 745.38540266 802.16350917 745.38540266 799.38573139 745.38540266 C799.05573139 746.37540266 798.72573139 747.36540266 798.38573139 748.38540266 C796.73573139 748.71540266 795.08573139 749.04540266 793.38573139 749.38540266 C793.05573139 750.37540266 792.72573139 751.36540266 792.38573139 752.38540266 C789.17288801 754.27120204 787.13939556 755.38540266 783.38573139 755.38540266 C783.05573139 756.37540266 782.72573139 757.36540266 782.38573139 758.38540266 C779.91698139 759.48305891 779.91698139 759.48305891 776.88573139 760.44790266 C775.03491662 761.04178524 773.19614167 761.67785307 771.38573139 762.38540266 C771.05573139 763.04540266 770.72573139 763.70540266 770.38573139 764.38540266 C768.31151264 764.94790266 768.31151264 764.94790266 765.69823139 765.38540266 C761.78298501 766.09318034 758.12979624 767.00601035 754.38573139 768.38540266 C754.38573139 768.71540266 754.38573139 769.04540266 754.38573139 769.38540266 C739.27974969 773.08016926 724.09785305 772.81428864 708.64299522 772.77080533 C704.72203363 772.76313022 700.80110705 772.77300045 696.88015055 772.78053532 C690.02174603 772.79132735 683.16341247 772.79106832 676.30500477 772.78339384 C666.10610591 772.77201259 655.90726654 772.7778651 645.70836804 772.78701876 C627.48990886 772.80279227 609.27148129 772.80145631 591.05301913 772.79278203 C575.11014849 772.78522867 559.16728943 772.78326838 543.22441738 772.78684996 C542.16596631 772.78707911 541.10751525 772.78730827 540.01698991 772.78754437 C535.72016047 772.78847842 531.42333103 772.78943362 527.1265016 772.79042366 C486.8385683 772.79959579 446.55065511 772.79128787 406.26272491 772.77513297 C370.48495002 772.76089566 334.70720717 772.76217147 298.92943256 772.77651594 C258.71261513 772.79258636 218.49581546 772.79894628 178.27899527 772.78967915 C173.99040673 772.78871703 169.70181818 772.78777851 165.41322963 772.78684996 C164.35730564 772.78661273 163.30138165 772.78637549 162.21345996 772.78613107 C146.28159501 772.78272146 130.34974292 772.78670424 114.41787975 772.79428862 C96.29989582 772.80287081 78.18194839 772.80071241 60.063969 772.78444639 C49.9292144 772.77564724 39.79453888 772.77504847 29.65978636 772.78638491 C22.88441804 772.79312663 16.10911294 772.7888991 9.33375396 772.7758706 C5.477355 772.76875603 1.62111279 772.76624849 -2.23528107 772.77708855 C-31.5896297 772.85387882 -31.5896297 772.85387882 -44.61426861 769.38540266 C-44.61426861 769.05540266 -44.61426861 768.72540266 -44.61426861 768.38540266 C-46.59426861 768.05540266 -48.57426861 767.72540266 -50.61426861 767.38540266 C-50.61426861 766.72540266 -50.61426861 766.06540266 -50.61426861 765.38540266 C-53.91426861 765.05540266 -57.21426861 764.72540266 -60.61426861 764.38540266 C-61.10926861 762.90040266 -61.10926861 762.90040266 -61.61426861 761.38540266 C-63.45613251 760.73676014 -63.45613251 760.73676014 -65.61426861 760.38540266 C-67.03792972 759.88400377 -68.4548959 759.3631622 -69.86426861 758.82290266 C-70.92387799 758.41878157 -70.92387799 758.41878157 -72.00489361 758.00649641 C-72.80153424 757.69905501 -72.80153424 757.69905501 -73.61426861 757.38540266 C-73.61426861 756.72540266 -73.61426861 756.06540266 -73.61426861 755.38540266 C-74.31551861 755.28227766 -75.01676861 755.17915266 -75.73926861 755.07290266 C-79.9852906 754.05754958 -83.51309576 752.48657551 -86.61426861 749.38540266 C-87.93174185 748.68791683 -89.26341054 748.01580309 -90.61426861 747.38540266 C-90.61426861 746.72540266 -90.61426861 746.06540266 -90.61426861 745.38540266 C-92.94641009 744.17912259 -95.11069 743.21992887 -97.61426861 742.38540266 C-97.61426861 741.39540266 -97.61426861 740.40540266 -97.61426861 739.38540266 C-98.33614361 739.15852766 -99.05801861 738.93165266 -99.80176861 738.69790266 C-103.19995164 737.11208392 -105.0665786 735.12416943 -107.61426861 732.38540266 C-108.48051861 731.51915266 -109.34676861 730.65290266 -110.23926861 729.76040266 C-111.02301861 728.97665266 -111.80676861 728.19290266 -112.61426861 727.38540266 C-113.21239361 726.82852766 -113.81051861 726.27165266 -114.42676861 725.69790266 C-115.61426861 724.38540266 -115.61426861 724.38540266 -115.61426861 722.38540266 C-116.27426861 722.38540266 -116.93426861 722.38540266 -117.61426861 722.38540266 C-117.61426861 721.72540266 -117.61426861 721.06540266 -117.61426861 720.38540266 C-118.27426861 720.38540266 -118.93426861 720.38540266 -119.61426861 720.38540266 C-119.94426861 719.39540266 -120.27426861 718.40540266 -120.61426861 717.38540266 C-121.78535043 716.24778033 -122.95764435 715.11136358 -124.13770611 713.98305891 C-131.61426861 705.89333917 -131.61426861 705.89333917 -131.61426861 701.38540266 C-132.27426861 701.38540266 -132.93426861 701.38540266 -133.61426861 701.38540266 C-135.37889544 698.29730571 -135.61426861 697.15228131 -135.61426861 693.38540266 C-136.27426861 693.38540266 -136.93426861 693.38540266 -137.61426861 693.38540266 C-138.29094859 692.14079484 -138.9552158 690.8894337 -139.61426861 689.63540266 C-139.98551861 688.93930891 -140.35676861 688.24321516 -140.73926861 687.52602766 C-141.61426861 685.38540266 -141.61426861 685.38540266 -141.61426861 681.38540266 C-142.27426861 681.38540266 -142.93426861 681.38540266 -143.61426861 681.38540266 C-143.81922955 680.67512923 -144.02419049 679.96485579 -144.23536236 679.23305891 C-144.50477642 678.31395735 -144.77419049 677.39485579 -145.05176861 676.44790266 C-145.45202252 675.07311751 -145.45202252 675.07311751 -145.86036236 673.67055891 C-146.40452912 671.44515336 -146.40452912 671.44515336 -147.61426861 670.38540266 C-147.65507644 668.38581903 -147.65681217 666.38495012 -147.61426861 664.38540266 C-148.27426861 664.38540266 -148.93426861 664.38540266 -149.61426861 664.38540266 C-149.75864361 663.27165266 -149.90301861 662.15790266 -150.05176861 661.01040266 C-150.39798896 657.56398219 -150.39798896 657.56398219 -151.61426861 655.38540266 C-151.71314395 652.49939934 -151.74982968 649.63745941 -151.74290306 646.75112818 C-151.7446561 645.84197343 -151.74640914 644.93281868 -151.7482153 643.99611379 C-151.75290877 640.91538728 -151.75040125 637.83470728 -151.74798138 634.75397871 C-151.74984767 632.53667307 -151.75214764 630.31936776 -151.7548467 628.10206298 C-151.76099364 621.98218431 -151.76082773 615.86231924 -151.75965233 609.74243818 C-151.7594699 603.82860104 -151.763953 597.91476865 -151.76826522 592.00093335 C-151.77795214 578.40419501 -151.78074996 564.80746043 -151.78132227 551.21071905 C-151.78178127 540.71261908 -151.78383678 530.2145206 -151.7870229 519.71642111 C-151.7879204 516.69789656 -151.78881022 513.67937202 -151.78969778 510.66084747 C-151.78991882 509.91049587 -151.79013987 509.16014427 -151.79036762 508.38705474 C-151.79652463 487.27161409 -151.8004679 466.15617395 -151.80002434 445.04073237 C-151.80000876 444.24411167 -151.79999318 443.44749098 -151.79997713 442.62673026 C-151.79989402 438.58884821 -151.79979498 434.55096617 -151.79969242 430.51308412 C-151.79967248 429.71110325 -151.79965253 428.90912237 -151.79963198 428.08283905 C-151.79959155 426.4610369 -151.79954975 424.83923476 -151.79950659 423.21743261 C-151.79889377 397.98199434 -151.80640055 372.74656951 -151.82007916 347.51113508 C-151.83542995 319.17883337 -151.84404598 290.84654048 -151.84311594 262.51423435 C-151.8430413 259.49476674 -151.8429926 256.47529912 -151.84296162 253.45583151 C-151.84294997 252.71232667 -151.84293831 251.96882183 -151.8429263 251.20278653 C-151.84289549 239.22204916 -151.84928967 227.24132342 -151.85789388 215.26058951 C-151.86635871 203.22523292 -151.86736953 191.1898934 -151.86078456 179.15453548 C-151.85750768 172.6305033 -151.85750455 166.1065134 -151.86613781 159.58248518 C-151.87395246 153.61589707 -151.87262336 147.64938514 -151.86385368 141.682799 C-151.86230751 139.51858461 -151.86417644 137.35436468 -151.86971376 135.19015682 C-151.87671937 132.2590778 -151.87152322 129.32827003 -151.86315758 126.39720057 C-151.86812576 125.54776948 -151.87309394 124.6983384 -151.87821267 123.82316698 C-151.85182625 119.48041355 -151.42119554 116.39915918 -149.61426861 112.38540266 C-149.61426861 111.06540266 -149.61426861 109.74540266 -149.61426861 108.38540266 C-148.95426861 108.38540266 -148.29426861 108.38540266 -147.61426861 108.38540266 C-147.67614361 107.56040266 -147.73801861 106.73540266 -147.80176861 105.88540266 C-147.57149215 101.58690876 -146.23421876 98.32196545 -144.61426861 94.38540266 C-144.28426861 93.39540266 -143.95426861 92.40540266 -143.61426861 91.38540266 C-142.95426861 91.38540266 -142.29426861 91.38540266 -141.61426861 91.38540266 C-141.51114361 90.70477766 -141.40801861 90.02415266 -141.30176861 89.32290266 C-140.46701842 85.75624278 -139.11954107 82.72318072 -137.61426861 79.38540266 C-136.95426861 79.38540266 -136.29426861 79.38540266 -135.61426861 79.38540266 C-135.46989361 78.62227766 -135.32551861 77.85915266 -135.17676861 77.07290266 C-134.61426861 74.38540266 -134.61426861 74.38540266 -133.61426861 71.38540266 C-132.95426861 71.38540266 -132.29426861 71.38540266 -131.61426861 71.38540266 C-131.42864361 70.58102766 -131.24301861 69.77665266 -131.05176861 68.94790266 C-129.05338936 63.99539756 -125.55301489 57.8547758 -120.61426861 55.38540266 C-120.28426861 54.39540266 -119.95426861 53.40540266 -119.61426861 52.38540266 C-118.95426861 52.38540266 -118.29426861 52.38540266 -117.61426861 52.38540266 C-117.61426861 51.72540266 -117.61426861 51.06540266 -117.61426861 50.38540266 C-116.95426861 50.38540266 -116.29426861 50.38540266 -115.61426861 50.38540266 C-115.30489361 49.76665266 -114.99551861 49.14790266 -114.67676861 48.51040266 C-113.98926861 47.13540266 -113.30176861 45.76040266 -112.61426861 44.38540266 C-111.95426861 44.38540266 -111.29426861 44.38540266 -110.61426861 44.38540266 C-110.61426861 43.72540266 -110.61426861 43.06540266 -110.61426861 42.38540266 C-108.97459651 41.01900925 -107.30316733 39.69046077 -105.61426861 38.38540266 C-104.93364361 37.66352766 -104.25301861 36.94165266 -103.55176861 36.19790266 C-101.51672578 34.29415291 -100.33278452 33.77376208 -97.61426861 33.38540266 C-97.61426861 32.39540266 -97.61426861 31.40540266 -97.61426861 30.38540266 C-93.39204639 27.38540266 -93.39204639 27.38540266 -90.61426861 27.38540266 C-90.11926861 25.90040266 -90.11926861 25.90040266 -89.61426861 24.38540266 C-87.63426861 24.05540266 -85.65426861 23.72540266 -83.61426861 23.38540266 C-83.11926861 21.90040266 -83.11926861 21.90040266 -82.61426861 20.38540266 C-79.40142524 18.49960329 -77.36793278 17.38540266 -73.61426861 17.38540266 C-73.11926861 15.90040266 -73.11926861 15.90040266 -72.61426861 14.38540266 C-70.87208111 13.43618391 -70.87208111 13.43618391 -68.73926861 12.69790266 C-67.6912608 12.32085188 -67.6912608 12.32085188 -66.62208111 11.93618391 C-64.61426861 11.38540266 -64.61426861 11.38540266 -61.61426861 11.38540266 C-61.28426861 10.39540266 -60.95426861 9.40540266 -60.61426861 8.38540266 C-57.31426861 8.05540266 -54.01426861 7.72540266 -50.61426861 7.38540266 C-50.61426861 6.72540266 -50.61426861 6.06540266 -50.61426861 5.38540266 C-48.63426861 5.38540266 -46.65426861 5.38540266 -44.61426861 5.38540266 C-44.61426861 4.72540266 -44.61426861 4.06540266 -44.61426861 3.38540266 C-29.94727574 -0.52043423 -15.05634044 -0.04232237 0 0 Z M207.38573139 187.38540266 C207.38573139 318.72540266 207.38573139 450.06540266 207.38573139 585.38540266 C215.99219833 582.70222483 215.99219833 582.70222483 217.38573139 579.38540266 C219.40359998 578.27209585 221.47769105 577.34336396 223.57323139 576.38540266 C225.55774662 575.51395697 225.55774662 575.51395697 226.38573139 573.38540266 C227.80885639 572.92134016 227.80885639 572.92134016 229.26073139 572.44790266 C232.41819598 571.3743647 233.18195047 570.68100778 235.38573139 568.38540266 C237.38573139 567.38540266 239.38573139 566.38540266 241.38573139 565.38540266 C241.71573139 564.72540266 242.04573139 564.06540266 242.38573139 563.38540266 C244.45213764 562.31509016 244.45213764 562.31509016 246.94823139 561.26040266 C247.77452045 560.90719954 248.60080951 560.55399641 249.45213764 560.19009016 C250.09022358 559.92454329 250.72830951 559.65899641 251.38573139 559.38540266 C251.38573139 558.72540266 251.38573139 558.06540266 251.38573139 557.38540266 C253.36573139 556.72540266 255.34573139 556.06540266 257.38573139 555.38540266 C257.38573139 554.72540266 257.38573139 554.06540266 257.38573139 553.38540266 C257.92198139 553.28227766 258.45823139 553.17915266 259.01073139 553.07290266 C262.01075183 552.20447569 264.62368489 550.8291997 267.38573139 549.38540266 C267.38573139 548.72540266 267.38573139 548.06540266 267.38573139 547.38540266 C268.37573139 547.38540266 269.36573139 547.38540266 270.38573139 547.38540266 C270.38573139 546.72540266 270.38573139 546.06540266 270.38573139 545.38540266 C271.37573139 545.38540266 272.36573139 545.38540266 273.38573139 545.38540266 C273.38573139 544.72540266 273.38573139 544.06540266 273.38573139 543.38540266 C274.37573139 543.38540266 275.36573139 543.38540266 276.38573139 543.38540266 C276.38573139 542.72540266 276.38573139 542.06540266 276.38573139 541.38540266 C278.69573139 540.72540266 281.00573139 540.06540266 283.38573139 539.38540266 C283.38573139 538.72540266 283.38573139 538.06540266 283.38573139 537.38540266 C284.37573139 537.38540266 285.36573139 537.38540266 286.38573139 537.38540266 C286.38573139 536.72540266 286.38573139 536.06540266 286.38573139 535.38540266 C288.36573139 534.72540266 290.34573139 534.06540266 292.38573139 533.38540266 C292.38573139 532.72540266 292.38573139 532.06540266 292.38573139 531.38540266 C292.92198139 531.28227766 293.45823139 531.17915266 294.01073139 531.07290266 C298.19235304 529.86243324 301.77957066 527.78950982 305.38573139 525.38540266 C305.38573139 524.72540266 305.38573139 524.06540266 305.38573139 523.38540266 C306.37573139 523.38540266 307.36573139 523.38540266 308.38573139 523.38540266 C308.38573139 522.72540266 308.38573139 522.06540266 308.38573139 521.38540266 C309.10760639 521.28227766 309.82948139 521.17915266 310.57323139 521.07290266 C313.6636656 520.31746319 315.8031698 519.23008951 318.38573139 517.38540266 C318.38573139 516.72540266 318.38573139 516.06540266 318.38573139 515.38540266 C320.03573139 515.05540266 321.68573139 514.72540266 323.38573139 514.38540266 C323.71573139 513.39540266 324.04573139 512.40540266 324.38573139 511.38540266 C326.03573139 511.05540266 327.68573139 510.72540266 329.38573139 510.38540266 C329.71573139 509.39540266 330.04573139 508.40540266 330.38573139 507.38540266 C331.70347335 506.9949606 333.04240411 506.6758518 334.38573139 506.38540266 C336.40099307 505.41652685 338.40407105 504.42127057 340.38573139 503.38540266 C340.38573139 502.72540266 340.38573139 502.06540266 340.38573139 501.38540266 C341.12823139 501.26165266 341.87073139 501.13790266 342.63573139 501.01040266 C345.21503188 500.42419801 347.13394758 499.75255712 349.38573139 498.38540266 C349.71573139 497.72540266 350.04573139 497.06540266 350.38573139 496.38540266 C352.03333519 495.67292534 353.70336668 495.01139883 355.38573139 494.38540266 C358.54590397 493.09543126 358.54590397 493.09543126 360.38573139 490.38540266 C362.3763868 489.3669278 364.37821324 488.37022289 366.38573139 487.38540266 C367.43760639 486.68415266 368.48948139 485.98290266 369.57323139 485.26040266 C372.38573139 483.38540266 372.38573139 483.38540266 375.38573139 482.38540266 C375.71573139 481.72540266 376.04573139 481.06540266 376.38573139 480.38540266 C378.45213764 479.31509016 378.45213764 479.31509016 380.94823139 478.26040266 C382.18766498 477.73059798 382.18766498 477.73059798 383.45213764 477.19009016 C384.09022358 476.92454329 384.72830951 476.65899641 385.38573139 476.38540266 C385.38573139 475.39540266 385.38573139 474.40540266 385.38573139 473.38540266 C387.36573139 473.05540266 389.34573139 472.72540266 391.38573139 472.38540266 C391.38573139 471.72540266 391.38573139 471.06540266 391.38573139 470.38540266 C392.37573139 470.38540266 393.36573139 470.38540266 394.38573139 470.38540266 C394.38573139 469.72540266 394.38573139 469.06540266 394.38573139 468.38540266 C396.69573139 467.72540266 399.00573139 467.06540266 401.38573139 466.38540266 C401.38573139 465.72540266 401.38573139 465.06540266 401.38573139 464.38540266 C402.49948139 463.95227766 402.49948139 463.95227766 403.63573139 463.51040266 C408.14156333 461.75661141 408.14156333 461.75661141 411.88573139 458.82290266 C413.66033324 457.12224255 414.99579395 456.79746084 417.38573139 456.38540266 C417.38573139 455.72540266 417.38573139 455.06540266 417.38573139 454.38540266 C418.37573139 454.05540266 419.36573139 453.72540266 420.38573139 453.38540266 C423.55071887 451.86884616 426.46254258 450.3341952 429.38573139 448.38540266 C429.38573139 447.72540266 429.38573139 447.06540266 429.38573139 446.38540266 C430.00448139 446.24102766 430.62323139 446.09665266 431.26073139 445.94790266 C433.41831461 445.45388041 433.41831461 445.45388041 435.38573139 444.38540266 C435.38573139 443.72540266 435.38573139 443.06540266 435.38573139 442.38540266 C435.98385639 442.24102766 436.58198139 442.09665266 437.19823139 441.94790266 C438.94723543 441.49815877 440.67250162 440.95647925 442.38573139 440.38540266 C442.38573139 439.72540266 442.38573139 439.06540266 442.38573139 438.38540266 C443.37573139 438.05540266 444.36573139 437.72540266 445.38573139 437.38540266 C447.39354316 436.4011812 449.39465891 435.40306193 451.38573139 434.38540266 C451.38573139 433.72540266 451.38573139 433.06540266 451.38573139 432.38540266 C452.35510639 432.26165266 453.32448139 432.13790266 454.32323139 432.01040266 C455.33385639 431.80415266 456.34448139 431.59790266 457.38573139 431.38540266 C457.71573139 430.72540266 458.04573139 430.06540266 458.38573139 429.38540266 C459.37573139 429.05540266 460.36573139 428.72540266 461.38573139 428.38540266 C461.38573139 427.72540266 461.38573139 427.06540266 461.38573139 426.38540266 C462.37573139 426.38540266 463.36573139 426.38540266 464.38573139 426.38540266 C464.38573139 425.72540266 464.38573139 425.06540266 464.38573139 424.38540266 C465.37573139 424.38540266 466.36573139 424.38540266 467.38573139 424.38540266 C467.38573139 423.72540266 467.38573139 423.06540266 467.38573139 422.38540266 C468.29323139 422.30290266 469.20073139 422.22040266 470.13573139 422.13540266 C473.90553548 421.26544787 474.79164889 420.14161532 477.38573139 417.38540266 C479.35452462 416.32528323 481.35009006 415.31069418 483.38573139 414.38540266 C483.38573139 413.72540266 483.38573139 413.06540266 483.38573139 412.38540266 C485.36573139 412.05540266 487.34573139 411.72540266 489.38573139 411.38540266 C489.38573139 410.72540266 489.38573139 410.06540266 489.38573139 409.38540266 C490.04573139 409.38540266 490.70573139 409.38540266 491.38573139 409.38540266 C491.38573139 408.72540266 491.38573139 408.06540266 491.38573139 407.38540266 C492.45823139 407.13790266 493.53073139 406.89040266 494.63573139 406.63540266 C498.52657334 405.33845534 499.62893141 404.23113168 502.38573139 401.38540266 C505.63573139 400.13540266 505.63573139 400.13540266 508.38573139 399.38540266 C508.38573139 398.39540266 508.38573139 397.40540266 508.38573139 396.38540266 C509.29323139 396.30290266 510.20073139 396.22040266 511.13573139 396.13540266 C514.40891884 395.6824229 514.40891884 395.6824229 516.19823139 393.57290266 C519.38941888 390.38171517 523.24188292 389.05002555 527.38573139 387.38540266 C527.38573139 386.72540266 527.38573139 386.06540266 527.38573139 385.38540266 C526.78245014 385.14305891 526.17916889 384.90071516 525.55760639 384.65102766 C520.92443581 382.70808516 517.94863596 380.94830723 514.38573139 377.38540266 C511.24091348 376.58224612 511.24091348 376.58224612 508.38573139 376.38540266 C508.38573139 375.39540266 508.38573139 374.40540266 508.38573139 373.38540266 C507.33385639 372.97290266 506.28198139 372.56040266 505.19823139 372.13540266 C502.60367104 371.03910956 501.00094185 370.07390637 498.76073139 368.26040266 C496.21555114 366.25104984 494.56726441 365.74900644 491.38573139 365.38540266 C491.38573139 364.72540266 491.38573139 364.06540266 491.38573139 363.38540266 C490.72573139 363.38540266 490.06573139 363.38540266 489.38573139 363.38540266 C489.05573139 362.72540266 488.72573139 362.06540266 488.38573139 361.38540266 C485.85839904 360.72985147 485.85839904 360.72985147 483.38573139 360.38540266 C483.05573139 359.39540266 482.72573139 358.40540266 482.38573139 357.38540266 C480.5555153 356.22385301 480.5555153 356.22385301 478.38573139 355.32290266 C474.48791279 353.58976546 474.48791279 353.58976546 473.38573139 351.38540266 C470.35638648 350.72767838 470.35638648 350.72767838 467.38573139 350.38540266 C467.38573139 349.72540266 467.38573139 349.06540266 467.38573139 348.38540266 C466.39573139 348.38540266 465.40573139 348.38540266 464.38573139 348.38540266 C464.38573139 347.72540266 464.38573139 347.06540266 464.38573139 346.38540266 C463.39573139 346.38540266 462.40573139 346.38540266 461.38573139 346.38540266 C461.38573139 345.72540266 461.38573139 345.06540266 461.38573139 344.38540266 C460.39573139 344.05540266 459.40573139 343.72540266 458.38573139 343.38540266 C458.05573139 342.72540266 457.72573139 342.06540266 457.38573139 341.38540266 C455.7258834 340.70193585 454.05736334 340.03951951 452.38573139 339.38540266 C451.16781971 338.71501707 449.95973163 338.02655323 448.76073139 337.32290266 C445.54396447 335.32810864 445.54396447 335.32810864 442.38573139 334.38540266 C442.38573139 333.72540266 442.38573139 333.06540266 442.38573139 332.38540266 C439.73834223 330.92477416 438.49124805 330.38540266 435.38573139 330.38540266 C435.38573139 329.72540266 435.38573139 329.06540266 435.38573139 328.38540266 C432.57063145 326.10805256 432.57063145 326.10805256 429.38573139 326.38540266 C429.38573139 325.72540266 429.38573139 325.06540266 429.38573139 324.38540266 C427.95002873 323.56973092 426.51209705 322.75798174 425.07323139 321.94790266 C423.87246967 321.26921126 423.87246967 321.26921126 422.64745014 320.57680891 C420.3236171 319.27449719 420.3236171 319.27449719 417.38573139 318.38540266 C417.38573139 317.72540266 417.38573139 317.06540266 417.38573139 316.38540266 C416.41635639 316.09665266 415.44698139 315.80790266 414.44823139 315.51040266 C411.38573139 314.38540266 411.38573139 314.38540266 410.38573139 312.38540266 C408.80589132 311.26604551 408.80589132 311.26604551 406.94823139 310.26040266 C406.33077045 309.90719954 405.71330951 309.55399641 405.07713764 309.19009016 C403.39690421 308.24219941 403.39690421 308.24219941 401.38573139 308.38540266 C401.38573139 307.72540266 401.38573139 307.06540266 401.38573139 306.38540266 C398.09023673 304.66275773 395.05454293 303.09094334 391.38573139 302.38540266 C391.38573139 301.72540266 391.38573139 301.06540266 391.38573139 300.38540266 C388.41573139 299.89040266 388.41573139 299.89040266 385.38573139 299.38540266 C385.38573139 298.39540266 385.38573139 297.40540266 385.38573139 296.38540266 C384.42860248 295.98708235 384.42860248 295.98708235 383.45213764 295.58071516 C382.62584858 295.22751204 381.79955951 294.87430891 380.94823139 294.51040266 C380.12452045 294.16235579 379.30080951 293.81430891 378.45213764 293.45571516 C376.38573139 292.38540266 376.38573139 292.38540266 375.38573139 290.38540266 C373.63886528 289.36741129 373.63886528 289.36741129 371.57323139 288.44790266 C368.56035301 287.00602515 366.02745447 285.44007617 363.38573139 283.38540266 C362.39573139 283.05540266 361.40573139 282.72540266 360.38573139 282.38540266 C360.05573139 281.72540266 359.72573139 281.06540266 359.38573139 280.38540266 C356.99058912 278.76706329 354.95023272 277.526528 352.13573139 276.82290266 C351.26948139 276.60634016 351.26948139 276.60634016 350.38573139 276.38540266 C350.05573139 275.72540266 349.72573139 275.06540266 349.38573139 274.38540266 C345.14161228 271.97556004 345.14161228 271.97556004 340.38573139 271.38540266 C340.05573139 270.39540266 339.72573139 269.40540266 339.38573139 268.38540266 C337.65872277 267.25623391 337.65872277 267.25623391 335.57323139 266.38540266 C333.14727158 265.25906418 331.21905835 264.25927172 329.07323139 262.63540266 C327.33395899 261.08778889 327.33395899 261.08778889 324.38573139 261.38540266 C324.05573139 260.39540266 323.72573139 259.40540266 323.38573139 258.38540266 C321.73573139 258.05540266 320.08573139 257.72540266 318.38573139 257.38540266 C318.38573139 256.72540266 318.38573139 256.06540266 318.38573139 255.38540266 C317.29260639 254.72540266 316.19948139 254.06540266 315.07323139 253.38540266 C314.15090717 252.82852766 314.15090717 252.82852766 313.20995014 252.26040266 C311.27211213 251.16916267 311.27211213 251.16916267 308.38573139 251.38540266 C308.38573139 250.72540266 308.38573139 250.06540266 308.38573139 249.38540266 C307.39573139 249.38540266 306.40573139 249.38540266 305.38573139 249.38540266 C305.38573139 248.72540266 305.38573139 248.06540266 305.38573139 247.38540266 C303.9724501 246.56702824 302.55494793 245.75594047 301.13573139 244.94790266 C299.95237201 244.26921126 299.95237201 244.26921126 298.74510639 243.57680891 C296.59739671 242.49228664 294.73368078 241.8539155 292.38573139 241.38540266 C292.38573139 240.72540266 292.38573139 240.06540266 292.38573139 239.38540266 C290.40573139 238.72540266 288.42573139 238.06540266 286.38573139 237.38540266 C286.38573139 236.72540266 286.38573139 236.06540266 286.38573139 235.38540266 C285.39573139 235.38540266 284.40573139 235.38540266 283.38573139 235.38540266 C283.38573139 234.72540266 283.38573139 234.06540266 283.38573139 233.38540266 C281.07573139 232.72540266 278.76573139 232.06540266 276.38573139 231.38540266 C276.38573139 230.72540266 276.38573139 230.06540266 276.38573139 229.38540266 C275.39573139 229.38540266 274.40573139 229.38540266 273.38573139 229.38540266 C273.38573139 228.72540266 273.38573139 228.06540266 273.38573139 227.38540266 C270.57063145 225.10805256 270.57063145 225.10805256 267.38573139 225.38540266 C267.38573139 224.72540266 267.38573139 224.06540266 267.38573139 223.38540266 C264.09023673 221.66275773 261.05454293 220.09094334 257.38573139 219.38540266 C257.38573139 218.72540266 257.38573139 218.06540266 257.38573139 217.38540266 C255.40573139 216.72540266 253.42573139 216.06540266 251.38573139 215.38540266 C251.38573139 214.72540266 251.38573139 214.06540266 251.38573139 213.38540266 C250.78245014 213.14305891 250.17916889 212.90071516 249.55760639 212.65102766 C244.97468696 210.72915822 241.81056368 209.05486583 238.38573139 205.38540266 C236.72989914 204.69226358 235.0646216 204.02065842 233.38573139 203.38540266 C233.05573139 202.72540266 232.72573139 202.06540266 232.38573139 201.38540266 C231.45760639 201.09665266 230.52948139 200.80790266 229.57323139 200.51040266 C226.12261308 199.29253738 224.8828029 197.96302487 222.38573139 195.38540266 C220.72989914 194.69226358 219.0646216 194.02065842 217.38573139 193.38540266 C217.05573139 192.72540266 216.72573139 192.06540266 216.38573139 191.38540266 C211.93073139 189.40540266 211.93073139 189.40540266 207.38573139 187.38540266 Z " fill="#2B2B2B" transform="translate(185.61426861118525,153.61459733732045)"/>
<path d="" fill="#2B2B2B" transform="translate(0,0)"/>
<path d="" fill="#2B2B2B" transform="translate(0,0)"/>
<path d="" fill="#2B2B2B" transform="translate(0,0)"/>
</svg>
