<?xml version="1.0" encoding="UTF-8"?>
<svg version="1.1" xmlns="http://www.w3.org/2000/svg" width="1667" height="1667">
<path d="M0 0 C0.66 -0.33 1.32 -0.66 2 -1 C3.34653372 -1.09399465 4.69755369 -1.12793408 6.04736328 -1.12939453 C6.88228302 -1.13254669 7.71720276 -1.13569885 8.5774231 -1.13894653 C9.4825766 -1.1369223 10.3877301 -1.13489807 11.3203125 -1.1328125 C12.25293915 -1.13376923 13.1855658 -1.13472595 14.14645386 -1.13571167 C16.12530586 -1.13639326 18.10416009 -1.13454046 20.08300781 -1.13037109 C23.09184909 -1.12505853 26.10053861 -1.13029806 29.109375 -1.13671875 C31.03385449 -1.13605726 32.95833389 -1.13477463 34.8828125 -1.1328125 C35.77582062 -1.13483673 36.66882874 -1.13686096 37.58889771 -1.13894653 C42.81522879 -1.11965208 47.82723887 -0.75525163 53 0 C53 0.99 53 1.98 53 3 C53.64066406 3.08636719 54.28132812 3.17273437 54.94140625 3.26171875 C60.42334263 4.15222704 64.12672848 5.34247264 68.4609375 8.82421875 C70.47839838 10.36547693 72.60381434 11.20127145 75 12 C75 12.99 75 13.98 75 15 C75.5671875 15.09796875 76.134375 15.1959375 76.71875 15.296875 C82.70028789 17.14049969 88.71288536 22.79540182 92 28 C92.75 30.8125 92.75 30.8125 93 33 C93.598125 33.0825 94.19625 33.165 94.8125 33.25 C97.66931115 34.22947811 98.46221001 35.43701668 100 38 C100.165 38.70125 100.33 39.4025 100.5 40.125 C100.88573402 42.40123363 100.88573402 42.40123363 104 44 C104.5625 45.9375 104.5625 45.9375 105 48 C105.66 48.99 106.32 49.98 107 51 C107.66666667 53.33333333 108.33333333 55.66666667 109 58 C109.66 58.99 110.32 59.98 111 61 C111.7013284 63.32315031 112.36485174 65.65789079 113 68 C113.65572791 70.00361307 114.31875294 72.00491933 115 74 C115.99 74 116.98 74 118 74 C118 77.3 118 80.6 118 84 C118.66 84 119.32 84 120 84 C120 85.65 120 87.3 120 89 C120.66 89 121.32 89 122 89 C125.34873428 94.12774936 126.12201318 96.77732802 126 103 C126.99 103.66 127.98 104.32 129 105 C129.04384447 106.66608987 129.0396713 108.33380554 129 110 C129.90833725 112.06669397 129.90833725 112.06669397 131 114 C131.36784131 115.3242287 131.71202981 116.65613912 132 118 C133.32 118.33 134.64 118.66 136 119 C135.938125 119.763125 135.87625 120.52625 135.8125 121.3125 C135.69992287 124.0347571 135.69992287 124.0347571 137.5 125.4375 C139.72670178 127.75698102 139 129.86422724 139 133 C140.26461808 135.60775041 140.26461808 135.60775041 142 138 C144.6908233 141.88674477 145.33056194 144.26194558 145 149 C145.99 149.33 146.98 149.66 148 150 C150.37599015 154.15798277 152.12505344 158.59795156 154 163 C154.37125 163.721875 154.7425 164.44375 155.125 165.1875 C156 167 156 167 156.5 169.0625 C156.96516768 171.30437677 156.96516768 171.30437677 159 174 C160.05111147 177.30227732 160.97369887 180.63014005 161.90234375 183.96875 C162.97274008 186.92471992 163.71700734 187.98807507 166 190 C169.10718789 195.9924338 169.10718789 195.9924338 168.6875 199.9375 C168.460625 200.618125 168.23375 201.29875 168 202 C170.475 202.99 170.475 202.99 173 204 C173.16947579 205.41633336 173.33545507 206.83308533 173.5 208.25 C173.5928125 209.03890625 173.685625 209.8278125 173.78125 210.640625 C174 213 174 213 174 217 C173.67 217.33 173.34 217.66 173 218 C174.98 218.33 176.96 218.66 179 219 C178.814375 219.598125 178.62875 220.19625 178.4375 220.8125 C177.77906313 223.16408762 177.77906313 223.16408762 179 226 C179.66 226 180.32 226 181 226 C181.32613281 226.90363281 181.65226563 227.80726563 181.98828125 228.73828125 C182.64376953 230.50751953 182.64376953 230.50751953 183.3125 232.3125 C183.74175781 233.48425781 184.17101562 234.65601563 184.61328125 235.86328125 C185.87883947 238.7259383 186.78097659 239.94833311 189 242 C189.72870472 244.31470912 190.39239518 246.6505947 191 249 C191.6599679 250.66933058 192.32558869 252.3364521 193 254 C194.21906609 257.65719827 194.07367282 261.16901323 194 265 C194.598125 265.185625 195.19625 265.37125 195.8125 265.5625 C199.10991441 267.72937233 199.79681041 270.32710545 201 274 C200.6875 276.4375 200.6875 276.4375 200 278 C201.32 278.33 202.64 278.66 204 279 C203.938125 279.928125 203.87625 280.85625 203.8125 281.8125 C204.02771912 285.47122498 204.46328826 285.6662252 207 288 C207.165 288.845625 207.33 289.69125 207.5 290.5625 C207.7756937 293.35862883 207.7756937 293.35862883 211 295 C211.1875 298.125 211.1875 298.125 211 301 C211.99 301.33 212.98 301.66 214 302 C213.938125 302.886875 213.87625 303.77375 213.8125 304.6875 C214.02248226 308.39718657 215.05296857 309.91720024 217 313 C217 314.32 217 315.64 217 317 C218.32 317.33 219.64 317.66 221 318 C221 319.32 221 320.64 221 322 C221.99 322.66 222.98 323.32 224 324 C224.29296875 326.3828125 224.29296875 326.3828125 224.1875 329.125 C224.14689453 330.49011719 224.14689453 330.49011719 224.10546875 331.8828125 C224.07066406 332.58148438 224.03585937 333.28015625 224 334 C224.99 334 225.98 334 227 334 C227.28875 334.9075 227.5775 335.815 227.875 336.75 C228.87195406 339.8776777 228.87195406 339.8776777 230.125 342.1875 C231 344 231 344 231 347 C231.99 347 232.98 347 234 347 C234 349.97 234 352.94 234 356 C235.32 356 236.64 356 238 356 C238 358.31 238 360.62 238 363 C238.99 363.33 239.98 363.66 241 364 C241.33 366.64 241.66 369.28 242 372 C242.66 372 243.32 372 244 372 C244.12375 373.546875 244.12375 373.546875 244.25 375.125 C244.94204226 378.70055168 245.71793681 380.28359051 247.8125 383.1328125 C251.36578524 388.719886 254.44228282 395.3043295 254 402 C254.99 402 255.98 402 257 402 C257.144375 403.093125 257.28875 404.18625 257.4375 405.3125 C257.88288104 408.93122987 257.88288104 408.93122987 259 412 C259.66 412 260.32 412 261 412 C261.29003906 413.04800781 261.29003906 413.04800781 261.5859375 414.1171875 C261.84632812 415.02726562 262.10671875 415.93734375 262.375 416.875 C262.63023438 417.77992188 262.88546875 418.68484375 263.1484375 419.6171875 C263.8604315 422.14569726 263.8604315 422.14569726 266 424 C266.39764263 425.98821313 266.73775349 427.98944339 267 430 C267.66 430 268.32 430 269 430 C269.103125 431.0725 269.20625 432.145 269.3125 433.25 C269.99985145 436.99918971 270.80101475 438.10133762 273 441 C272.6875 443.25 272.6875 443.25 272 445 C273.32 445.99 274.64 446.98 276 448 C275.67 449.32 275.34 450.64 275 452 C276.32 452.66 277.64 453.32 279 454 C279 456.31 279 458.62 279 461 C279.99 461.33 280.98 461.66 282 462 C284.41726629 466.725109 285.40651563 471.71529678 285 477 C286.32 477.33 287.64 477.66 289 478 C289.04898437 478.71027344 289.09796875 479.42054688 289.1484375 480.15234375 C289.22320313 481.07144531 289.29796875 481.99054688 289.375 482.9375 C289.47941406 484.31228516 289.47941406 484.31228516 289.5859375 485.71484375 C289.72257812 486.46894531 289.85921875 487.22304688 290 488 C290.66 488.33 291.32 488.66 292 489 C292 489.66 292 490.32 292 491 C293.32 491.66 294.64 492.32 296 493 C296 493.66 296 494.32 296 495 C300.0951174 495.85711759 302.94439857 495.83191824 307 495 C309.6875 495.4375 309.6875 495.4375 312 496 C312.66 496 313.32 496 314 496 C318.82352941 496.82352941 318.82352941 496.82352941 320 498 C321.57422314 498.14522077 323.15439392 498.227145 324.734375 498.28125 C325.70117188 498.31863281 326.66796875 498.35601563 327.6640625 498.39453125 C329.19160156 498.44673828 329.19160156 498.44673828 330.75 498.5 C332.74492293 498.56923254 334.73972588 498.64203273 336.734375 498.71875 C337.62350586 498.74904297 338.51263672 498.77933594 339.42871094 498.81054688 C342 499 342 499 344.76660156 499.58007812 C345.50362305 499.71865234 346.24064453 499.85722656 347 500 C347.33 499.67 347.66 499.34 348 499 C351.49734228 499.38859359 354.65788261 499.88596087 358 501 C358 501.66 358 502.32 358 503 C359.66611905 503.042721 361.33382885 503.04063832 363 503 C363.33 502.67 363.66 502.34 364 502 C365.66617115 501.95936168 367.33388095 501.957279 369 502 C369 502.66 369 503.32 369 504 C369.66 503.67644531 370.32 503.35289062 371 503.01953125 C374.70096274 501.7617822 378.138296 501.66968771 382 501.6875 C382.69867187 501.67138672 383.39734375 501.65527344 384.1171875 501.63867188 C388.71914163 501.63433041 391.19312706 502.55410019 395 505 C397.530677 505.32277545 397.530677 505.32277545 400.0625 505.125 C403.2869308 504.97595081 405.89804352 505.06869667 409 506 C409 506.66 409 507.32 409 508 C411.75641416 507.50243908 411.75641416 507.50243908 414 506 C415.8203125 505.83203125 415.8203125 505.83203125 418.125 505.8125 C418.87007812 505.79832031 419.61515625 505.78414062 420.3828125 505.76953125 C423 506 423 506 425.95703125 506.9765625 C431.6479692 508.70521181 437.66590504 508.43286976 443.5625 508.5625 C445.9597281 508.62271898 448.35687221 508.68640281 450.75390625 508.75390625 C452.33667358 508.78979858 452.33667358 508.78979858 453.95141602 508.82641602 C458.8481488 509.10523215 462.63549157 509.81323816 467 512 C469.08931009 512.25615872 469.08931009 512.25615872 471.2578125 512.16015625 C472.44310547 512.1437207 472.44310547 512.1437207 473.65234375 512.12695312 C474.46832031 512.10568359 475.28429688 512.08441406 476.125 512.0625 C484.76013514 511.88006757 484.76013514 511.88006757 487 513 C487.825 512.79375 488.65 512.5875 489.5 512.375 C493.03268644 511.99649788 494.21428539 512.29648945 497.4296875 513.46484375 C503.53211927 515.38453456 509.27773572 515.33789083 515.625 515.1875 C516.72457031 515.17396484 517.82414062 515.16042969 518.95703125 515.14648438 C521.63855332 515.111508 524.31900073 515.06243072 527 515 C527 515.66 527 516.32 527 517 C527.639375 516.7525 528.27875 516.505 528.9375 516.25 C533.54844669 515.87359619 536.95242713 517.94534972 541 520 C541.33 519.67 541.66 519.34 542 519 C546.07808844 518.73385416 550.1598149 518.72874034 554.24584961 518.70483398 C556.29414312 518.68765397 558.34080822 518.64379011 560.38867188 518.59960938 C561.67966797 518.59123047 562.97066406 518.58285156 564.30078125 518.57421875 C565.48841064 518.55963623 566.67604004 518.54505371 567.8996582 518.5300293 C571.60534922 519.09176291 572.58477268 520.24900052 575 523 C577.32934437 522.80210131 577.32934437 522.80210131 580 522 C582.89525678 521.83109198 585.78801148 521.86024433 588.6875 521.875 C589.45900391 521.87113281 590.23050781 521.86726562 591.02539062 521.86328125 C596.74654908 521.87327454 596.74654908 521.87327454 599 523 C599.66 522.67 600.32 522.34 601 522 C603.3329866 521.95977609 605.66706666 521.95679753 608 522 C608 523.32 608 524.64 608 526 C608.85070068 525.83467773 609.70140137 525.66935547 610.57788086 525.49902344 C616.55910135 524.62682435 622.53660287 525.05437324 628.5625 525.25 C629.87669922 525.27707031 631.19089844 525.30414062 632.54492188 525.33203125 C633.81013672 525.37199219 635.07535156 525.41195312 636.37890625 525.453125 C637.5294751 525.48567383 638.68004395 525.51822266 639.86547852 525.55175781 C643.28306248 526.04047844 645.13367287 527.14788819 648 529 C651.28768831 529.28702991 651.28768831 529.28702991 654.6875 529.0625 C658.13671875 528.91015625 658.13671875 528.91015625 661 529 C661.66 529.66 662.32 530.32 663 531 C663.33 530.34 663.66 529.68 664 529 C667.6467518 528.13114303 671.25726406 527.84360325 675 528 C677.625 529.9375 677.625 529.9375 680 532 C682.38630064 532.21388635 684.62465435 532.12985865 687.01171875 531.9453125 C689 532 689 532 691 534 C691.99 533.34 692.98 532.68 694 532 C696.14477539 531.83300781 696.14477539 531.83300781 698.59765625 531.953125 C699.48130859 531.99566406 700.36496094 532.03820312 701.27539062 532.08203125 C702.65500977 532.16517578 702.65500977 532.16517578 704.0625 532.25 C704.98611328 532.28996094 705.90972656 532.32992187 706.86132812 532.37109375 C713.74308036 532.74308036 713.74308036 532.74308036 716 535 C718.67653981 535.34086609 721.24978097 535.56228853 723.9375 535.6875 C724.70223633 535.7302002 725.46697266 535.77290039 726.25488281 535.81689453 C731.50613951 536.06342721 736.5058038 535.83819235 741.703125 534.9609375 C744.79075626 535.01344824 746.39313179 536.40159916 749 538 C759.32429367 539.98311213 770.51431884 539.09965272 781 539 C781 539.99 781 540.98 781 542 C781.88042969 541.96519531 782.76085938 541.93039062 783.66796875 541.89453125 C784.82941406 541.86746094 785.99085937 541.84039063 787.1875 541.8125 C788.91033203 541.76029297 788.91033203 541.76029297 790.66796875 541.70703125 C794.30691744 542.02698571 796.0066906 543.0044604 799 545 C801.70953551 545.25196129 801.70953551 545.25196129 804 545 C804.33 546.32 804.66 547.64 805 549 C806.4540625 549.185625 806.4540625 549.185625 807.9375 549.375 C808.948125 549.58125 809.95875 549.7875 811 550 C811.33 550.66 811.66 551.32 812 552 C812.99 552 813.98 552 815 552 C815 552.66 815 553.32 815 554 C815.5775 554.12375 816.155 554.2475 816.75 554.375 C819.02335767 555.00648824 820.9253529 555.88858191 823 557 C823 557.66 823 558.32 823 559 C824.32 559.33 825.64 559.66 827 560 C827 560.66 827 561.32 827 562 C827.66 562 828.32 562 829 562 C829 562.66 829 563.32 829 564 C829.598125 564.103125 830.19625 564.20625 830.8125 564.3125 C833.3805608 565.11960482 834.26895053 565.96265224 836 568 C836.86482038 570.05795219 837.50012163 572.12539528 838.15625 574.2578125 C838.4346875 574.83273437 838.713125 575.40765625 839 576 C839.99 576.33 840.98 576.66 842 577 C845.69147849 582.47767776 850 590.27654272 850 597 C850.66 597 851.32 597 852 597 C854.18880782 603.17710983 854.26839081 608.86116076 854.1875 615.375 C854.18685547 616.38433594 854.18621094 617.39367187 854.18554688 618.43359375 C854.14057211 625.85942789 854.14057211 625.85942789 853 627 C853.31581373 628.67007502 853.65232109 630.33626677 854 632 C854.21046597 635.47746384 854.18509277 638.95423122 854.1875 642.4375 C854.20586914 643.8306543 854.20586914 643.8306543 854.22460938 645.25195312 C854.23522815 650.22508021 854.029038 654.36112131 852 659 C851.67 659.33 851.34 659.66 851 660 C851.99 660.495 851.99 660.495 853 661 C852.67 662.65 852.34 664.3 852 666 C851.34 666 850.68 666 850 666 C849.87625 666.99 849.87625 666.99 849.75 668 C848.75240209 671.99039163 846.92833317 675.38549643 845 679 C844.34 679 843.68 679 843 679 C842.88269531 679.57492187 842.76539063 680.14984375 842.64453125 680.7421875 C841.95282817 683.16524435 841.00415322 684.98085265 839.6875 687.125 C839.27886719 687.80820312 838.87023438 688.49140625 838.44921875 689.1953125 C836.80823013 691.23880777 835.32943749 691.8757725 833 693 C831.71745356 695.53770003 831.71745356 695.53770003 831 698 C829.68 698 828.36 698 827 698 C826.34 699.32 825.68 700.64 825 702 C824.01 702 823.02 702 822 702 C821.67 702.99 821.34 703.98 821 705 C818.33753475 708.62901723 815.3737528 711.70915767 812.0625 714.75 C810.81146484 715.91789063 810.81146484 715.91789063 809.53515625 717.109375 C806.90616363 719.06997967 805.22331346 719.65402718 802 720 C801.67 721.32 801.34 722.64 801 724 C800.01 724 799.02 724 798 724 C797.67 725.32 797.34 726.64 797 728 C796.01 728 795.02 728 794 728 C793.91492187 728.59683594 793.82984375 729.19367187 793.7421875 729.80859375 C792.78711556 732.62856932 791.55625786 733.39268004 789.125 735.0625 C787.03037825 736.51946015 785.14546851 737.85000735 783.3671875 739.68359375 C782 741 782 741 780 741 C780 741.99 780 742.98 780 744 C778.02 744 776.04 744 774 744 C773.67 744.99 773.34 745.98 773 747 C772.34 747.33 771.68 747.66 771 748 C771 748.99 771 749.98 771 751 C769.66205138 751.92627212 768.3128658 752.83906362 766.921875 753.68359375 C763.67251663 755.90927215 760.90609587 758.6881856 758.05078125 761.390625 C756 763 756 763 753 763 C752.67 763.99 752.34 764.98 752 766 C751.0409375 766.1546875 751.0409375 766.1546875 750.0625 766.3125 C749.381875 766.539375 748.70125 766.76625 748 767 C747.29618843 768.98723268 746.6288189 770.98777953 746 773 C745.01 773.33 744.02 773.66 743 774 C741.32932867 775.99665598 739.66247014 777.99651034 738 780 C737.34 780 736.68 780 736 780 C736 780.66 736 781.32 736 782 C732.51989036 786.26594084 729.13397258 788.03349235 723.98828125 789.91015625 C721.56077199 791.24075563 720.98664076 792.46217004 720 795 C718.68 795 717.36 795 716 795 C715.01 797.31 714.02 799.62 713 802 C712.01 802 711.02 802 710 802 C709.67 803.32 709.34 804.64 709 806 C708.01 806 707.02 806 706 806 C705.34 806.99 704.68 807.98 704 809 C703.34 809 702.68 809 702 809 C701.67 810.65 701.34 812.3 701 814 C698.9375364 814.5156159 696.90926073 815.0155553 694.8125 815.375 C694.214375 815.58125 693.61625 815.7875 693 816 C692.67 816.99 692.34 817.98 692 819 C691.34 819 690.68 819 690 819 C690 819.99 690 820.98 690 822 C687.37403939 823.84526962 685.04872454 824.98375849 682 826 C681.26676204 828.01508358 681.26676204 828.01508358 681 830 C679.35 830.33 677.7 830.66 676 831 C675.67 831.99 675.34 832.98 675 834 C674.01 834 673.02 834 672 834 C671.773125 834.598125 671.54625 835.19625 671.3125 835.8125 C669.66023856 838.56626907 667.7245803 839.36525182 665 841 C663.67206394 843.06700655 663.67206394 843.06700655 663 845 C662.34 845 661.68 845 661 845 C660.7525 845.61875 660.505 846.2375 660.25 846.875 C658.76259631 849.40358627 657.56321991 849.71839004 655 851 C654.5359375 851.9590625 654.5359375 851.9590625 654.0625 852.9375 C652.62938097 855.71943695 650.6728847 856.4630913 648 858 C647.34 858.99 646.68 859.98 646 861 C644.66666667 861.33333333 643.33333333 861.66666667 642 862 C641.34 862.99 640.68 863.98 640 865 C639.34 865 638.68 865 638 865 C638 865.66 638 866.32 638 867 C636.35 867 634.7 867 633 867 C632.938125 867.7425 632.87625 868.485 632.8125 869.25 C631.74359613 872.86782848 630.09234428 873.93843714 627 876 C626.01 876.33 625.02 876.66 624 877 C623.5359375 878.175625 623.5359375 878.175625 623.0625 879.375 C621.55668435 883.09525042 619.3151397 884.24279835 615.9375 886.1875 C614 887 614 887 611 887 C611 887.99 611 888.98 611 890 C610.34 890 609.68 890 609 890 C608.938125 890.556875 608.87625 891.11375 608.8125 891.6875 C607.63366502 895.04264572 605.69790286 896.74129063 603 899 C601.68 899 600.36 899 599 899 C599 900.32 599 901.64 599 903 C598.48050781 903.23074219 597.96101563 903.46148438 597.42578125 903.69921875 C592.74113189 905.89000671 589.55205955 908.15993562 586 912 C581.35135135 916 581.35135135 916 579 916 C579 916.99 579 917.98 579 919 C577.125 921.1875 577.125 921.1875 575 923 C574.34 923 573.68 923 573 923 C572.67 923.99 572.34 924.98 572 926 C571.01 926 570.02 926 569 926 C569 926.99 569 927.98 569 929 C567.71086513 929.67154933 566.41859796 930.33708859 565.125 931 C564.40570312 931.37125 563.68640625 931.7425 562.9453125 932.125 C561 933 561 933 559 933 C559 933.99 559 934.98 559 936 C558.01 936 557.02 936 556 936 C555.67 937.32 555.34 938.64 555 940 C554.34 940 553.68 940 553 940 C552.67 940.99 552.34 941.98 552 943 C551.01 943 550.02 943 549 943 C549 943.99 549 944.98 549 946 C548.34 946 547.68 946 547 946 C546.67 946.99 546.34 947.98 546 949 C544.51171875 950.53515625 544.51171875 950.53515625 542.6875 952.0625 C541.79611328 952.82240234 541.79611328 952.82240234 540.88671875 953.59765625 C537.34770888 956.22810044 535.51836168 957 531 957 C530.938125 957.763125 530.87625 958.52625 530.8125 959.3125 C529.74119692 962.85604096 528.15404673 963.2652743 525 965 C524.67 965.99 524.34 966.98 524 968 C522.35 967.67 520.7 967.34 519 967 C519 968.32 519 969.64 519 971 C518.01 971 517.02 971 516 971 C516 971.99 516 972.98 516 974 C514.68 974 513.36 974 512 974 C512 975.32 512 976.64 512 978 C510.35 978 508.7 978 507 978 C506.67 979.32 506.34 980.64 506 982 C505.34 982 504.68 982 504 982 C503.67 982.99 503.34 983.98 503 985 C502.34 985 501.68 985 501 985 C501 985.99 501 986.98 501 988 C500.401875 988.144375 499.80375 988.28875 499.1875 988.4375 C497.43849596 988.8872439 495.71322977 989.42892341 494 990 C494 991.32 494 992.64 494 994 C493.01 994 492.02 994 491 994 C491 995.32 491 996.64 491 998 C490.09507812 998.22042969 490.09507812 998.22042969 489.171875 998.4453125 C483.31569202 1000.08882192 481.10240368 1001.57079357 478 1007 C473.68421053 1011 473.68421053 1011 470 1011 C470 1011.66 470 1012.32 470 1013 C469.505 1013.474375 469.01 1013.94875 468.5 1014.4375 C466.65373409 1015.99969942 466.65373409 1015.99969942 467 1019 C466.34 1019 465.68 1019 465 1019 C465.38969317 1022.27342265 465.82249366 1024.69100748 467.4765625 1027.5703125 C469.49495444 1032.11428204 469.72581488 1036.33085312 470.0625 1041.25 C470.19107302 1043.04747622 470.32741406 1044.84441886 470.47265625 1046.640625 C470.55398804 1047.82446777 470.55398804 1047.82446777 470.63696289 1049.03222656 C470.84970871 1051.2277631 470.84970871 1051.2277631 473 1053 C473.04080783 1054.99958364 473.04254356 1057.00045254 473 1059 C473.33 1059.33 473.66 1059.66 474 1060 C474.12494616 1061.62139437 474.17571624 1063.24884122 474.1875 1064.875 C474.20167969 1065.75929688 474.21585938 1066.64359375 474.23046875 1067.5546875 C474 1070 474 1070 472 1073 C473.98 1072.67 475.96 1072.34 478 1072 C477.938125 1073.175625 477.87625 1074.35125 477.8125 1075.5625 C477.79965184 1079.24349908 478.63495751 1081.62241383 480.2734375 1084.9453125 C481.55137156 1088.55925505 481.52840296 1092.3294023 481.69140625 1096.1328125 C481.8694061 1099.00688257 481.8694061 1099.00688257 483.01953125 1101.53515625 C484.12464844 1104.31335922 484.20429509 1106.33893407 484.125 1109.3125 C484.10695313 1110.19550781 484.08890625 1111.07851562 484.0703125 1111.98828125 C484.03550781 1112.98408203 484.03550781 1112.98408203 484 1114 C485.32 1114.66 486.64 1115.32 488 1116 C488.125 1122.625 488.125 1122.625 487 1126 C487.65613281 1126.39316406 488.31226563 1126.78632812 488.98828125 1127.19140625 C491 1129 491 1129 491.35546875 1131.33984375 C491.27232422 1132.62568359 491.27232422 1132.62568359 491.1875 1133.9375 C491.00651377 1137.18057752 490.87535703 1139.91585639 492 1143 C492.66 1143.33 493.32 1143.66 494 1144 C494.34375 1146.1796875 494.34375 1146.1796875 494.5 1148.875 C494.71605729 1152.58038253 494.87261471 1153.80892206 497 1157 C497.51635102 1160.1841646 497.88113386 1163.344357 498.2109375 1166.55078125 C498.61555571 1170.08770248 498.98478899 1171.97718349 501 1175 C501.4140625 1177.91796875 501.4140625 1177.91796875 501.625 1181.1875 C501.69976563 1182.27417969 501.77453125 1183.36085938 501.8515625 1184.48046875 C501.90054687 1185.31191406 501.94953125 1186.14335938 502 1187 C502.66 1187 503.32 1187 504 1187 C504.04898437 1187.73605469 504.09796875 1188.47210937 504.1484375 1189.23046875 C504.22320313 1190.20628906 504.29796875 1191.18210937 504.375 1192.1875 C504.44460938 1193.15042969 504.51421875 1194.11335938 504.5859375 1195.10546875 C505.00427161 1198.02986096 505.88799445 1200.27932238 507 1203 C507.30859375 1205.28125 507.30859375 1205.28125 507.4375 1207.5 C507.70780936 1210.54348314 507.90848734 1211.85357975 509.5625 1214.5 C511.15942092 1217.27725378 511.1193488 1218.31886406 511 1221.4375 C510.8351301 1225.78863172 511.97913679 1228.11994264 514 1232 C514.21911674 1233.49323998 514.38213797 1234.99537835 514.5 1236.5 C514.74640583 1239.59033983 515.02781309 1241.05330842 516.5 1243.875 C518.36964482 1247.77009338 518.49375076 1251.13751651 518.69140625 1255.4140625 C519.00883345 1258.07402206 519.79195852 1259.6472418 521 1262 C520.979375 1263.175625 520.95875 1264.35125 520.9375 1265.5625 C520.958125 1266.696875 520.97875 1267.83125 521 1269 C521.73863281 1269.59554688 521.73863281 1269.59554688 522.4921875 1270.203125 C524.94612665 1273.12750845 524.31119523 1276.55593498 524.1875 1280.1875 C524.17396484 1280.93708984 524.16042969 1281.68667969 524.14648438 1282.45898438 C524.11118539 1284.30629767 524.05737917 1286.15324066 524 1288 C524.99 1288 525.98 1288 527 1288 C527.19916016 1289.26457031 527.19916016 1289.26457031 527.40234375 1290.5546875 C527.57894531 1291.65039062 527.75554687 1292.74609375 527.9375 1293.875 C528.19853516 1295.51082031 528.19853516 1295.51082031 528.46484375 1297.1796875 C528.85551159 1299.93821546 528.85551159 1299.93821546 530 1302 C529.96870267 1303.79248324 529.90130771 1305.58444453 529.8125 1307.375 C529.5700026 1311.71384045 529.5700026 1311.71384045 532 1315.0625 C532.66 1315.701875 533.32 1316.34125 534 1317 C534.38033426 1320.3558905 534.20220881 1323.63547008 534 1327 C533.73737851 1330.0182669 533.73737851 1330.0182669 535.3984375 1332.265625 C537.24301116 1335.4148971 537.89083404 1338.18405105 538.625 1341.75 C539.15143764 1345.69082399 539.15143764 1345.69082399 541 1349 C541.07164161 1351.32835228 540.9964482 1353.6402961 540.9375 1355.96875 C540.76775055 1357.99609236 540.76775055 1357.99609236 542 1359 C542.23527773 1361.34987262 542.41386417 1363.70556039 542.5625 1366.0625 C542.68818359 1367.99802734 542.68818359 1367.99802734 542.81640625 1369.97265625 C542.87699219 1370.97167969 542.93757813 1371.97070312 543 1373 C543.99 1373.33 544.98 1373.66 546 1374 C545.7525 1374.763125 545.505 1375.52625 545.25 1376.3125 C544.98793468 1380.1779634 545.52735906 1381.78962158 546.9375 1385.3125 C549.01509994 1390.52434864 549.36543954 1394.42704702 549 1400 C550.32 1400.66 551.64 1401.32 553 1402 C552.96519531 1402.65226562 552.93039062 1403.30453125 552.89453125 1403.9765625 C552.67533033 1409.68133155 552.67533033 1409.68133155 554.5 1415 C556.62409258 1419.24818515 556.45823082 1423.32075834 556 1428 C555.67 1428.33 555.34 1428.66 555 1429 C556.32 1429.66 557.64 1430.32 559 1431 C558.96519531 1431.83144531 558.93039062 1432.66289063 558.89453125 1433.51953125 C558.86746094 1434.60621094 558.84039063 1435.69289063 558.8125 1436.8125 C558.77769531 1437.89144531 558.74289062 1438.97039062 558.70703125 1440.08203125 C559.03968179 1443.39523065 559.58418487 1443.90546975 562 1446 C562.625 1449.375 562.625 1449.375 563 1453 C563.41524516 1455.55079171 563.74099239 1457.53741443 565.00390625 1459.79296875 C566.56989814 1463.2627155 566.45460787 1466.77843676 566.65625 1470.5390625 C566.77237389 1473.17403194 566.77237389 1473.17403194 569 1475 C569.62724657 1478.32440684 570.0127078 1481.42814891 569.9375 1484.8125 C569.75555866 1487.21330768 569.75555866 1487.21330768 572 1489 C572.18747482 1491.61805288 572.25568837 1494.12832531 572.23046875 1496.74609375 C572.22978142 1497.89646873 572.22978142 1497.89646873 572.2290802 1499.07008362 C572.22605717 1500.69330388 572.21816935 1502.31652123 572.20581055 1503.93969727 C572.18759826 1506.42409555 572.18530057 1508.90812017 572.18554688 1511.39257812 C572.18062987 1512.96875322 572.17480076 1514.54492579 572.16796875 1516.12109375 C572.16685593 1516.86491806 572.1657431 1517.60874237 572.16459656 1518.37510681 C572.13574077 1521.51423836 572.00008306 1523.99975083 571 1527 C570.34 1527 569.68 1527 569 1527 C569.03480469 1527.71285156 569.06960938 1528.42570312 569.10546875 1529.16015625 C569.2791737 1535.30600269 568.99120745 1539.5928173 566 1545 C565.34 1545.66 564.68 1546.32 564 1547 C563.5359375 1548.7634375 563.5359375 1548.7634375 563.0625 1550.5625 C562.5365625 1552.2640625 562.5365625 1552.2640625 562 1554 C561.01 1554.33 560.02 1554.66 559 1555 C558.67 1556.98 558.34 1558.96 558 1561 C557.01 1561.33 556.02 1561.66 555 1562 C554.26676204 1564.01508358 554.26676204 1564.01508358 554 1566 C552.68 1566.33 551.36 1566.66 550 1567 C550.061875 1567.763125 550.12375 1568.52625 550.1875 1569.3125 C550 1572 550 1572 548.625 1573.8125 C547 1575 547 1575 545 1575 C544.938125 1575.61875 544.87625 1576.2375 544.8125 1576.875 C544.4103125 1577.926875 544.4103125 1577.926875 544 1579 C542.34302621 1579.69040574 540.6744239 1580.3530635 539 1581 C538.21625 1581.78375 537.4325 1582.5675 536.625 1583.375 C532.09713965 1587.90286035 527.07657385 1590.06066792 521 1592 C520.13375 1592.495 519.2675 1592.99 518.375 1593.5 C514.22415929 1595.3448181 510.29243639 1595.826878 505.8046875 1596.375 C502.95859069 1596.77532889 502.95859069 1596.77532889 501.1328125 1598.625 C498.34017696 1600.42538042 496.51964481 1599.87669006 493.34570312 1599.33691406 C488.84184328 1598.69002329 484.29143495 1598.85678569 479.75 1598.875 C478.7703125 1598.87113281 477.790625 1598.86726563 476.78125 1598.86328125 C475.83765625 1598.86457031 474.8940625 1598.86585937 473.921875 1598.8671875 C473.07206055 1598.86831543 472.22224609 1598.86944336 471.34667969 1598.87060547 C469.00744779 1598.92247919 469.00744779 1598.92247919 466.83691406 1599.55908203 C464.11308881 1600.21288698 462.53200596 1599.11879333 460 1598 C457.01091482 1597.09763466 454.02752259 1596.23696742 450.984375 1595.53515625 C446.6056529 1594.52403912 443.02515661 1593.05730227 439 1591 C438.0925 1590.835 437.185 1590.67 436.25 1590.5 C434 1590 434 1590 432 1587 C430.68 1587 429.36 1587 428 1587 C427.34 1586.01 426.68 1585.02 426 1584 C423.94074861 1583.27617533 423.94074861 1583.27617533 422 1583 C422 1582.34 422 1581.68 422 1581 C420.68 1581 419.36 1581 418 1581 C417.67 1580.34 417.34 1579.68 417 1579 C414.47266765 1578.34444881 414.47266765 1578.34444881 412 1578 C412 1577.01 412 1576.02 412 1575 C410.35 1575 408.7 1575 407 1575 C406.67 1574.01 406.34 1573.02 406 1572 C404.35 1571.67 402.7 1571.34 401 1571 C401 1570.01 401 1569.02 401 1568 C400.443125 1567.7525 399.88625 1567.505 399.3125 1567.25 C397 1566 397 1566 394.625 1564 C391.75831988 1561.81586277 389.40707126 1561.12746078 386 1560 C383.85784927 1558.9940752 381.7322837 1557.95205611 379.625 1556.875 C378.56539062 1556.33617187 377.50578125 1555.79734375 376.4140625 1555.2421875 C375.21910156 1554.62730469 375.21910156 1554.62730469 374 1554 C374 1553.34 374 1552.68 374 1552 C373.278125 1551.9175 372.55625 1551.835 371.8125 1551.75 C368.38772874 1550.83672766 366.52992571 1549.45764212 364 1547 C364 1546.01 364 1545.02 364 1544 C363.21625 1544.061875 362.4325 1544.12375 361.625 1544.1875 C360.75875 1544.125625 359.8925 1544.06375 359 1544 C358.34 1543.01 357.68 1542.02 357 1541 C354.66989091 1540.32215008 352.33640176 1539.65583207 350 1539 C348.0625 1537.5 348.0625 1537.5 347 1536 C347 1535.34 347 1534.68 347 1534 C346.113125 1534.061875 345.22625 1534.12375 344.3125 1534.1875 C340.63527631 1533.97935526 338.90037545 1533.21793417 336 1531 C336 1530.34 336 1529.68 336 1529 C335.401875 1528.896875 334.80375 1528.79375 334.1875 1528.6875 C332 1528 332 1528 330.68359375 1526.58203125 C327.98182313 1524.04324447 324.63424624 1523.26408565 321.1796875 1522.0625 C320.10074219 1521.5365625 320.10074219 1521.5365625 319 1521 C318.67 1520.01 318.34 1519.02 318 1518 C317.071875 1517.855625 316.14375 1517.71125 315.1875 1517.5625 C312 1517 312 1517 309 1516 C309 1515.01 309 1514.02 309 1513 C308.29875 1513.103125 307.5975 1513.20625 306.875 1513.3125 C302.71667796 1512.86050847 300.90520663 1510.90520663 298 1508 C297.125 1505.6875 297.125 1505.6875 297 1504 C296.67 1504.66 296.34 1505.32 296 1506 C294.68 1505.67 293.36 1505.34 292 1505 C292 1504.34 292 1503.68 292 1503 C291.0925 1502.896875 290.185 1502.79375 289.25 1502.6875 C285.93872634 1501.98703826 284.40896394 1501.31974305 282 1499 C281.67 1498.01 281.34 1497.02 281 1496 C279.7934375 1495.814375 279.7934375 1495.814375 278.5625 1495.625 C277.2940625 1495.315625 277.2940625 1495.315625 276 1495 C275.67 1494.34 275.34 1493.68 275 1493 C272.47266765 1492.34444881 272.47266765 1492.34444881 270 1492 C270 1491.01 270 1490.02 270 1489 C269.46375 1488.87625 268.9275 1488.7525 268.375 1488.625 C265.5361714 1487.87793984 262.77776798 1486.94696636 260 1486 C260 1485.01 260 1484.02 260 1483 C258.35 1482.67 256.7 1482.34 255 1482 C254.67 1481.01 254.34 1480.02 254 1479 C251.74212109 1477.82617876 251.74212109 1477.82617876 249.0625 1476.9375 C244.19282511 1475.19282511 244.19282511 1475.19282511 242 1473 C241.278125 1472.71125 240.55625 1472.4225 239.8125 1472.125 C237.48731031 1471.19492412 235.52310171 1470.19547923 233.375 1468.9375 C230.15823308 1466.94270598 230.15823308 1466.94270598 227 1466 C227 1465.01 227 1464.02 227 1463 C225.35 1463 223.7 1463 222 1463 C222 1462.34 222 1461.68 222 1461 C217.95536216 1458.45011962 214.45246367 1456.75857952 209.8125 1455.5625 C205.34066276 1454.33308251 203.67250093 1452.86027912 201 1449 C198.38181544 1447.66701026 198.38181544 1447.66701026 196 1447 C196 1446.34 196 1445.68 196 1445 C193.69 1445 191.38 1445 189 1445 C189 1443.68 189 1442.36 189 1441 C187.35 1440.67 185.7 1440.34 184 1440 C184 1439.34 184 1438.68 184 1438 C183.05125 1437.896875 182.1025 1437.79375 181.125 1437.6875 C178 1437 178 1437 176 1434 C173.94074861 1433.27617533 173.94074861 1433.27617533 172 1433 C172 1432.34 172 1431.68 172 1431 C171.195625 1430.87625 170.39125 1430.7525 169.5625 1430.625 C168.716875 1430.41875 167.87125 1430.2125 167 1430 C166.67 1429.34 166.34 1428.68 166 1428 C164.68 1428 163.36 1428 162 1428 C162 1427.01 162 1426.02 162 1425 C161.0925 1424.938125 160.185 1424.87625 159.25 1424.8125 C156 1424 156 1424 154.125 1421.625 C151.25167284 1418.07559586 148.23385615 1417.37054725 144 1416 C141.00391556 1414.70439592 139.28846995 1413.28846995 137 1411 C136.01 1410.67 135.02 1410.34 134 1410 C134 1409.34 134 1408.68 134 1408 C132.35 1408 130.7 1408 129 1408 C128.67 1407.01 128.34 1406.02 128 1405 C126.68 1405 125.36 1405 124 1405 C124 1403.35 124 1401.7 124 1400 C122.02 1400.33 120.04 1400.66 118 1401 C117.67 1400.34 117.34 1399.68 117 1399 C114.98330173 1397.86649466 114.98330173 1397.86649466 113 1397 C113 1396.01 113 1395.02 113 1394 C111.02 1394 109.04 1394 107 1394 C107.33 1393.01 107.66 1392.02 108 1391 C107.113125 1391.0825 106.22625 1391.165 105.3125 1391.25 C101.19817548 1390.93948494 100.1554316 1389.56955468 97 1387 C95.00573912 1385.92818305 92.98328072 1384.90737076 90.9375 1383.9375 C83.9625576 1380.62154378 83.9625576 1380.62154378 81 1378 C81 1377.34 81 1376.68 81 1376 C80.21625 1375.938125 79.4325 1375.87625 78.625 1375.8125 C73.64711207 1374.6967665 69.47546306 1372.39693773 65 1370 C65 1369.01 65 1368.02 65 1367 C63.02 1366.67 61.04 1366.34 59 1366 C59 1365.01 59 1364.02 59 1363 C58.278125 1363.103125 57.55625 1363.20625 56.8125 1363.3125 C54 1363 54 1363 51.83984375 1360.734375 C47.90101522 1356.94183033 43.47896992 1355.15064244 38.53125 1352.95117188 C36.63821046 1352.06600061 34.8122578 1351.04060009 33 1350 C32.28613281 1347.87719727 32.28613281 1347.87719727 32 1346 C31.13375 1346.061875 30.2675 1346.12375 29.375 1346.1875 C25.53558652 1345.97419925 23.37388475 1344.76028769 20 1343 C18.68 1343 17.36 1343 16 1343 C16 1343.99 16 1344.98 16 1346 C14.02 1345.67 12.04 1345.34 10 1345 C9.773125 1345.78375 9.54625 1346.5675 9.3125 1347.375 C8 1350 8 1350 5.625 1351.25 C3.42325519 1351.87906994 1.23534199 1352.50325734 -1 1353 C-1 1353.99 -1 1354.98 -1 1356 C-3.31 1356 -5.62 1356 -8 1356 C-9.20628008 1358.33214148 -10.1654738 1360.49642139 -11 1363 C-11.78375 1362.938125 -12.5675 1362.87625 -13.375 1362.8125 C-14.24125 1362.874375 -15.1075 1362.93625 -16 1363 C-16.66 1363.99 -17.32 1364.98 -18 1366 C-24.11111111 1369 -24.11111111 1369 -28 1369 C-28 1369.99 -28 1370.98 -28 1372 C-31.5460927 1374.80388725 -34.4926374 1376.46972205 -39 1377 C-39 1377.99 -39 1378.98 -39 1380 C-40.65 1380 -42.3 1380 -44 1380 C-44 1380.66 -44 1381.32 -44 1382 C-47.82320557 1383.42258812 -50.91281305 1384.24042276 -55 1384 C-55.020625 1384.5775 -55.04125 1385.155 -55.0625 1385.75 C-56.36269267 1388.8704624 -58.32728274 1389.67041173 -61.2109375 1391.265625 C-63 1392 -63 1392 -66 1392 C-66 1392.66 -66 1393.32 -66 1394 C-68.31 1394.33 -70.62 1394.66 -73 1395 C-73.12375 1395.61875 -73.2475 1396.2375 -73.375 1396.875 C-74 1399 -74 1399 -76 1401 C-77.5159375 1401.2475 -77.5159375 1401.2475 -79.0625 1401.5 C-80.5165625 1401.7475 -80.5165625 1401.7475 -82 1402 C-82.33 1402.66 -82.66 1403.32 -83 1404 C-83.99 1404.33 -84.98 1404.66 -86 1405 C-86.7425 1405.7734375 -86.7425 1405.7734375 -87.5 1406.5625 C-89 1408 -89 1408 -92 1408 C-92.33 1408.99 -92.66 1409.98 -93 1411 C-94.98 1411 -96.96 1411 -99 1411 C-99.08507812 1411.61359375 -99.17015625 1412.2271875 -99.2578125 1412.859375 C-100 1415 -100 1415 -101.7421875 1416.265625 C-102.44601562 1416.59046875 -103.14984375 1416.9153125 -103.875 1417.25 C-104.92300781 1417.75273437 -104.92300781 1417.75273437 -105.9921875 1418.265625 C-108 1419 -108 1419 -111 1419 C-111.33 1419.99 -111.66 1420.98 -112 1422 C-113.9609375 1423.09765625 -113.9609375 1423.09765625 -116.375 1424.0625 C-119.21749291 1425.21523735 -121.42065555 1426.28043703 -124 1428 C-124.66 1427.67 -125.32 1427.34 -126 1427 C-126 1427.66 -126 1428.32 -126 1429 C-126.66 1429 -127.32 1429 -128 1429 C-128 1429.66 -128 1430.32 -128 1431 C-128.99 1431 -129.98 1431 -131 1431 C-131 1431.99 -131 1432.98 -131 1434 C-132.98 1434.33 -134.96 1434.66 -137 1435 C-137.33 1435.99 -137.66 1436.98 -138 1438 C-140.31 1438 -142.62 1438 -145 1438 C-145.309375 1438.61875 -145.61875 1439.2375 -145.9375 1439.875 C-148.22202089 1444.44404177 -150.08640548 1445.16781221 -155 1447 C-156.32 1447 -157.64 1447 -159 1447 C-159.33 1447.99 -159.66 1448.98 -160 1450 C-160.66 1450 -161.32 1450 -162 1450 C-162.33 1450.99 -162.66 1451.98 -163 1453 C-165.31029085 1453.74259349 -167.645752 1454.411438 -170 1455 C-170.33 1455.33 -170.66 1455.66 -171 1456 C-172.66617115 1456.04063832 -174.33388095 1456.042721 -176 1456 C-176 1456.99 -176 1457.98 -176 1459 C-176.99 1459 -177.98 1459 -179 1459 C-179.226875 1459.639375 -179.45375 1460.27875 -179.6875 1460.9375 C-181 1463 -181 1463 -183.625 1463.75 C-184.40875 1463.8325 -185.1925 1463.915 -186 1464 C-186 1464.66 -186 1465.32 -186 1466 C-193.28571429 1469.42857143 -193.28571429 1469.42857143 -198 1469 C-198.33 1469.99 -198.66 1470.98 -199 1472 C-201.0625 1472.6875 -201.0625 1472.6875 -203 1473 C-203 1473.99 -203 1474.98 -203 1476 C-205.31 1476.33 -207.62 1476.66 -210 1477 C-210.33 1477.99 -210.66 1478.98 -211 1480 C-212.32 1480 -213.64 1480 -215 1480 C-215 1480.66 -215 1481.32 -215 1482 C-216.32 1482 -217.64 1482 -219 1482 C-219.226875 1482.598125 -219.45375 1483.19625 -219.6875 1483.8125 C-221.36710046 1486.61183411 -223.09105125 1487.58100061 -226 1489 C-226.99 1489 -227.98 1489 -229 1489 C-229.33 1489.66 -229.66 1490.32 -230 1491 C-231.32 1491 -232.64 1491 -234 1491 C-234.04125 1491.5775 -234.0825 1492.155 -234.125 1492.75 C-235.44688572 1496.14913472 -237.94716455 1497.12133203 -241 1499 C-241.86625 1499.763125 -242.7325 1500.52625 -243.625 1501.3125 C-246 1503 -246 1503 -248.3125 1502.75 C-248.869375 1502.5025 -249.42625 1502.255 -250 1502 C-250.33 1503.32 -250.66 1504.64 -251 1506 C-252.98 1506 -254.96 1506 -257 1506 C-257.33 1506.99 -257.66 1507.98 -258 1509 C-260.93821901 1511.69998503 -263.12584032 1513.16982293 -267 1514 C-267.33 1514.66 -267.66 1515.32 -268 1516 C-269.98 1516 -271.96 1516 -274 1516 C-274 1516.99 -274 1517.98 -274 1519 C-276.64738916 1520.4606285 -277.89448334 1521 -281 1521 C-281 1521.66 -281 1522.32 -281 1523 C-281.70125 1523.103125 -282.4025 1523.20625 -283.125 1523.3125 C-286.38793059 1524.09276601 -289.0218264 1525.47782238 -292 1527 C-292.66 1527 -293.32 1527 -294 1527 C-294.33 1528.32 -294.66 1529.64 -295 1531 C-296.32 1531.33 -297.64 1531.66 -299 1532 C-299 1532.66 -299 1533.32 -299 1534 C-300.19625 1534.4125 -301.3925 1534.825 -302.625 1535.25 C-306.4863336 1536.67835172 -309.58597494 1538.69751798 -313 1541 C-313.99 1541 -314.98 1541 -316 1541 C-316 1541.99 -316 1542.98 -316 1544 C-320.75 1545.125 -320.75 1545.125 -323 1544 C-323.33 1544.99 -323.66 1545.98 -324 1547 C-326.0625 1547.6875 -326.0625 1547.6875 -328 1548 C-328 1548.99 -328 1549.98 -328 1551 C-329.98 1550.67 -331.96 1550.34 -334 1550 C-333.814375 1550.639375 -333.62875 1551.27875 -333.4375 1551.9375 C-333.293125 1552.618125 -333.14875 1553.29875 -333 1554 C-334 1555 -334 1555 -336.5625 1555.0625 C-337.366875 1555.041875 -338.17125 1555.02125 -339 1555 C-339.33 1555.99 -339.66 1556.98 -340 1558 C-341.99622361 1560.8834341 -343.12266284 1561.02286934 -346.6875 1561.6875 C-347.780625 1561.790625 -348.87375 1561.89375 -350 1562 C-350 1562.66 -350 1563.32 -350 1564 C-351.093125 1564.4125 -352.18625 1564.825 -353.3125 1565.25 C-355.95026786 1566.35258697 -356.85661464 1566.79926049 -358.5625 1569.1875 C-359.2740625 1570.0846875 -359.2740625 1570.0846875 -360 1571 C-363.1875 1571.25 -363.1875 1571.25 -366 1571 C-366 1572.32 -366 1573.64 -366 1575 C-367.32 1574.67 -368.64 1574.34 -370 1574 C-370 1574.66 -370 1575.32 -370 1576 C-370.66 1576 -371.32 1576 -372 1576 C-372 1576.66 -372 1577.32 -372 1578 C-372.63808594 1578.26554687 -373.27617187 1578.53109375 -373.93359375 1578.8046875 C-374.75988281 1579.15789062 -375.58617187 1579.51109375 -376.4375 1579.875 C-377.26121094 1580.22304687 -378.08492188 1580.57109375 -378.93359375 1580.9296875 C-381.15746715 1581.8244937 -381.15746715 1581.8244937 -382 1584 C-383.66666667 1584.66666667 -385.33333333 1585.33333333 -387 1586 C-387.33 1586.66 -387.66 1587.32 -388 1588 C-389.32 1587.67 -390.64 1587.34 -392 1587 C-392.33 1587.99 -392.66 1588.98 -393 1590 C-394.11375 1590.12375 -394.11375 1590.12375 -395.25 1590.25 C-398.11497865 1590.76634053 -398.11497865 1590.76634053 -399.8125 1593 C-403.56535832 1596.43118475 -408.03850348 1596 -413 1596 C-414.56406528 1596.15127402 -416.12659252 1596.31902522 -417.6875 1596.5 C-418.49574219 1596.5928125 -419.30398438 1596.685625 -420.13671875 1596.78125 C-420.75160156 1596.8534375 -421.36648438 1596.925625 -422 1597 C-422 1597.66 -422 1598.32 -422 1599 C-422.68964844 1598.98839844 -423.37929688 1598.97679687 -424.08984375 1598.96484375 C-429.52169762 1598.91268603 -434.74886138 1599.07841502 -440.125 1599.87890625 C-442 1600 -442 1600 -445 1599 C-447.48674479 1598.98019657 -449.95305738 1598.99818557 -452.4375 1599.0625 C-460.10624727 1599.24990829 -460.10624727 1599.24990829 -464 1597 C-465.61389704 1596.61649971 -467.24084518 1596.2850862 -468.875 1596 C-474.52772259 1594.93752057 -479.68595627 1593.18813565 -485 1591 C-485 1590.34 -485 1589.68 -485 1589 C-486.216875 1588.79375 -487.43375 1588.5875 -488.6875 1588.375 C-492.00866263 1587.56809781 -493.61578375 1586.72244763 -495.6875 1584 C-497.6715439 1580.88295526 -497.6715439 1580.88295526 -500.41015625 1580.08984375 C-503.55014585 1578.76849066 -504.7341234 1577.27858152 -506.75 1574.5625 C-507.34296875 1573.78003906 -507.9359375 1572.99757813 -508.546875 1572.19140625 C-510 1570 -510 1570 -511 1567 C-511.99 1566.34 -512.98 1565.68 -514 1565 C-514 1564.01 -514 1563.02 -514 1562 C-515.76294537 1560.05468097 -517.58335164 1558.33652367 -519.625 1556.6875 C-521.71324118 1554.12465856 -522.13968019 1551.15450596 -523 1548 C-523.66 1547.34 -524.32 1546.68 -525 1546 C-524.625 1543.875 -524.625 1543.875 -524 1542 C-525.32 1541.34 -526.64 1540.68 -528 1540 C-528 1535.71 -528 1531.42 -528 1527 C-528.99 1527.33 -529.98 1527.66 -531 1528 C-533.33148087 1525.66851913 -532.17161327 1519.85255047 -532.18554688 1516.75 C-532.18546631 1516.07324219 -532.18538574 1515.39648438 -532.18530273 1514.69921875 C-532.18748367 1512.64041306 -532.20562031 1510.58214788 -532.22460938 1508.5234375 C-532.22654297 1507.22921875 -532.22847656 1505.935 -532.23046875 1504.6015625 C-532.23457764 1503.40869629 -532.23868652 1502.21583008 -532.24291992 1500.98681641 C-532 1498 -532 1498 -530 1495 C-530.165 1493.865625 -530.33 1492.73125 -530.5 1491.5625 C-531.05060224 1487.63945907 -530.67424445 1487.29349547 -529 1484 C-528.54935368 1481.41467299 -528.54935368 1481.41467299 -528.375 1478.75 C-528.26285156 1477.41195313 -528.26285156 1477.41195313 -528.1484375 1476.046875 C-528.09945313 1475.37140625 -528.05046875 1474.6959375 -528 1474 C-527.01 1474 -526.02 1474 -525 1474 C-525.03480469 1473.20335937 -525.06960938 1472.40671875 -525.10546875 1471.5859375 C-525.26089417 1465.50214251 -525.24664584 1461.32449918 -522 1456 C-521.04740688 1452.58654134 -520.86140142 1451.41579574 -522 1448 C-521.43722249 1445.83090275 -520.77836652 1443.6859963 -520.0625 1441.5625 C-518.76928127 1437.70914656 -518 1435.09611231 -518 1431 C-517.01 1431 -516.02 1431 -515 1431 C-515.03480469 1430.24976563 -515.06960938 1429.49953125 -515.10546875 1428.7265625 C-515.27402385 1422.3535744 -514.73819201 1417.21287731 -512.66015625 1411.19140625 C-511.82611361 1408.4227795 -511.92994346 1405.87231799 -512 1403 C-511.34 1402.01 -510.68 1401.02 -510 1400 C-509.34 1400 -508.68 1400 -508 1400 C-508.02320313 1399.15695312 -508.04640625 1398.31390625 -508.0703125 1397.4453125 C-508.08835937 1396.34960938 -508.10640625 1395.25390625 -508.125 1394.125 C-508.14820313 1393.03445313 -508.17140625 1391.94390625 -508.1953125 1390.8203125 C-508 1388 -508 1388 -506 1386 C-504.73227139 1381.68972272 -504.92455476 1377.45126889 -505 1373 C-504.01 1373 -503.02 1373 -502 1373 C-501.08767312 1368.42754042 -501.08767312 1368.42754042 -501.5625 1363.875 C-502 1362 -502 1362 -501.0625 1359.6875 C-499.77277885 1356.97628527 -499.77277885 1356.97628527 -500.1875 1353.75 C-499.95920936 1349.18418729 -498.40234845 1346.84265126 -495.8984375 1343.11328125 C-495.60195313 1342.41589844 -495.30546875 1341.71851563 -495 1341 C-495.87289093 1338.95732004 -495.87289093 1338.95732004 -497 1337 C-496.828125 1335 -496.828125 1335 -496.25 1333 C-495.95222656 1331.948125 -495.95222656 1331.948125 -495.6484375 1330.875 C-495 1329 -495 1329 -493.875 1327 C-492.44606101 1323.73385373 -492.88220283 1320.53391515 -493 1317 C-492.01 1316.67 -491.02 1316.34 -490 1316 C-488.96409801 1310.94997778 -488.89748328 1306.12583611 -489 1301 C-488.01 1300.67 -487.02 1300.34 -486 1300 C-486 1295.71 -486 1291.42 -486 1287 C-485.34 1286.67 -484.68 1286.34 -484 1286 C-483.6430436 1283.45186712 -483.6430436 1283.45186712 -483.5625 1280.4375 C-483.25890359 1275.77315512 -482.53572549 1272.15490407 -480.69921875 1267.890625 C-479.5052708 1264.66229648 -479.30488702 1261.41473457 -479 1258 C-478.34 1258 -477.68 1258 -477 1258 C-477.04640625 1257.28714844 -477.0928125 1256.57429688 -477.140625 1255.83984375 C-477.47168822 1247.05484483 -477.47168822 1247.05484483 -475 1243.3125 C-473.0058474 1240.00968476 -472.7859934 1239.48198433 -473 1235.9375 C-473 1231.25325774 -471.59119711 1229.76141515 -469 1226 C-469.25475806 1223.47608101 -469.25475806 1223.47608101 -470 1221 C-469.45652174 1215.45652174 -469.45652174 1215.45652174 -467 1213 C-466.65223309 1209.65439427 -466.5566652 1206.32984957 -466.44140625 1202.96875 C-466.29574219 1201.9890625 -466.15007812 1201.009375 -466 1200 C-465.01 1199.34 -464.02 1198.68 -463 1198 C-462.63583953 1195.56306689 -462.63583953 1195.56306689 -462.8125 1192.875 C-462.83957031 1191.96492188 -462.86664063 1191.05484375 -462.89453125 1190.1171875 C-462.92933594 1189.41851563 -462.96414063 1188.71984375 -463 1188 C-462.34 1187.67 -461.68 1187.34 -461 1187 C-460.60691577 1184.77702487 -460.60691577 1184.77702487 -460.5 1182.1875 C-460.219259 1177.43595855 -460.219259 1177.43595855 -458.99609375 1175.00390625 C-457.7570032 1172.51114761 -457.69317043 1170.521797 -457.5625 1167.75 C-457.24417619 1163.3802822 -456.40685452 1160.04911295 -454.69140625 1156.0546875 C-453.58698271 1152.77261527 -453.48193719 1149.44451083 -453.30859375 1146.00390625 C-453.20675781 1145.34261719 -453.10492188 1144.68132812 -453 1144 C-452.34 1143.67 -451.68 1143.34 -451 1143 C-450.60914534 1140.90491777 -450.60914534 1140.90491777 -450.5 1138.5 C-450.34375 1136.03125 -450.34375 1136.03125 -450 1134 C-449.34 1133.67 -448.68 1133.34 -448 1133 C-447.96261719 1131.79601563 -447.92523438 1130.59203125 -447.88671875 1129.3515625 C-447.82107072 1127.77600989 -447.75462299 1126.20049046 -447.6875 1124.625 C-447.66494141 1123.8309375 -447.64238281 1123.036875 -447.61914062 1122.21875 C-447.52214925 1120.13784419 -447.27005175 1118.06558668 -447 1116 C-446.01 1115.34 -445.02 1114.68 -444 1114 C-443.45111939 1110.9503187 -443.45111939 1110.9503187 -443.375 1107.5 C-443.0804878 1101.16097561 -443.0804878 1101.16097561 -442 1099 C-441.34 1099 -440.68 1099 -440 1099 C-440 1095.04 -440 1091.08 -440 1087 C-439.01 1086.67 -438.02 1086.34 -437 1086 C-436.67 1081.71 -436.34 1077.42 -436 1073 C-434.68 1072.67 -433.36 1072.34 -432 1072 C-432.33 1071.34 -432.66 1070.68 -433 1070 C-433.09608608 1068.16871229 -433.12982579 1066.33380041 -433.125 1064.5 C-433.12757813 1063.5203125 -433.13015625 1062.540625 -433.1328125 1061.53125 C-433 1059 -433 1059 -432 1057 C-431.64080679 1055.00448218 -431.30503431 1053.00451121 -431 1051 C-430.34 1051 -429.68 1051 -429 1051 C-428.98598145 1050.10075806 -428.98598145 1050.10075806 -428.97167969 1049.18334961 C-428.91757724 1046.43393733 -428.83401203 1043.68615448 -428.75 1040.9375 C-428.73582031 1039.99455078 -428.72164063 1039.05160156 -428.70703125 1038.08007812 C-428.48852556 1031.80896494 -427.36178665 1028.263125 -424 1023 C-424.64663567 1020.2995961 -424.64663567 1020.2995961 -426 1018 C-426 1016.68 -426 1015.36 -426 1014 C-427.32 1014 -428.64 1014 -430 1014 C-431.67578125 1012.49609375 -431.67578125 1012.49609375 -433.3125 1010.4375 C-439.977011 1002.16199917 -439.977011 1002.16199917 -449 997 C-451.97564504 995.00175662 -454.5719782 993.13120046 -455.875 989.6875 C-455.936875 988.8521875 -455.936875 988.8521875 -456 988 C-456.66 988 -457.32 988 -458 988 C-461.47928514 984.9556255 -463.60846256 982.42761914 -465 978 C-466.32 978 -467.64 978 -469 978 C-469 977.34 -469 976.68 -469 976 C-469.556875 975.87625 -470.11375 975.7525 -470.6875 975.625 C-475.6 974.2972973 -475.6 974.2972973 -478 973 C-478.8125 970.375 -478.8125 970.375 -479 968 C-479.721875 967.938125 -480.44375 967.87625 -481.1875 967.8125 C-484.96582381 966.72098423 -486.34186901 964.90539899 -489 962 C-495.8243261 954.50251159 -495.8243261 954.50251159 -504.1875 949.0625 C-506 948 -506 948 -507 945.4375 C-507.33 944.633125 -507.66 943.82875 -508 943 C-510.04105639 942.11306697 -510.04105639 942.11306697 -512 942 C-512 941.01 -512 940.02 -512 939 C-512.99 939 -513.98 939 -515 939 C-515.33 938.01 -515.66 937.02 -516 936 C-517.2375 935.2884375 -517.2375 935.2884375 -518.5 934.5625 C-521 933 -521 933 -521.8125 930.8125 C-521.9053125 929.9153125 -521.9053125 929.9153125 -522 929 C-523.98 929.33 -525.96 929.66 -528 930 C-528 928.68 -528 927.36 -528 926 C-528.804375 925.7525 -529.60875 925.505 -530.4375 925.25 C-533 924 -533 924 -533.8125 921.875 C-533.9053125 920.946875 -533.9053125 920.946875 -534 920 C-535.32 919.67 -536.64 919.34 -538 919 C-538 918.01 -538 917.02 -538 916 C-539.32 916 -540.64 916 -542 916 C-542 914.68 -542 913.36 -542 912 C-543.32 911.67 -544.64 911.34 -546 911 C-546 910.34 -546 909.68 -546 909 C-546.99 908.67 -547.98 908.34 -549 908 C-549 907.34 -549 906.68 -549 906 C-549.99 906 -550.98 906 -552 906 C-552.33 905.01 -552.66 904.02 -553 903 C-555.01508358 902.26676204 -555.01508358 902.26676204 -557 902 C-556.67 901.01 -556.34 900.02 -556 899 C-557.03125 898.979375 -558.0625 898.95875 -559.125 898.9375 C-564.32426789 897.67961261 -565.94317602 895.18392109 -569 891 C-572.2255077 886.62676563 -574.60687069 884.4069033 -580 883 C-583 881 -583 881 -584 878 C-584.66 877.67 -585.32 877.34 -586 877 C-586 875.68 -586 874.36 -586 873 C-587.32 873 -588.64 873 -590 873 C-592.6875 870.5625 -592.6875 870.5625 -595 868 C-595.33 867.67 -595.66 867.34 -596 867 C-596.04063832 865.33382885 -596.042721 863.66611905 -596 862 C-596.5671875 862.21011719 -597.134375 862.42023437 -597.71875 862.63671875 C-602.02934519 863.32316627 -605.50983758 860.29902442 -609 858 C-611.5625 855.875 -611.5625 855.875 -613 854 C-613 853.01 -613 852.02 -613 851 C-613.53625 850.773125 -614.0725 850.54625 -614.625 850.3125 C-617.84930329 848.53064818 -620.29649295 846.51917702 -623 844 C-623 843.01 -623 842.02 -623 841 C-623.66 841 -624.32 841 -625 841 C-625 840.01 -625 839.02 -625 838 C-626.65 837.67 -628.3 837.34 -630 837 C-630.33 836.01 -630.66 835.02 -631 834 C-631.99 834 -632.98 834 -634 834 C-634.33 832.68 -634.66 831.36 -635 830 C-636.65 830 -638.3 830 -640 830 C-640.33 828.68 -640.66 827.36 -641 826 C-642.32 826 -643.64 826 -645 826 C-646.75 824.6875 -646.75 824.6875 -648 823 C-648 822.01 -648 821.02 -648 820 C-649.32 819.34 -650.64 818.68 -652 818 C-652 817.34 -652 816.68 -652 816 C-652.66 815.814375 -653.32 815.62875 -654 815.4375 C-657.65815697 813.68463312 -660.18726091 811.31503406 -663.1328125 808.55859375 C-665.02004569 806.79044854 -665.02004569 806.79044854 -668 806 C-668.28875 805.38125 -668.5775 804.7625 -668.875 804.125 C-669.89386955 801.7549992 -669.89386955 801.7549992 -672.625 800.4375 C-673.800625 799.7259375 -673.800625 799.7259375 -675 799 C-675 798.01 -675 797.02 -675 796 C-676.32 795.67 -677.64 795.34 -679 795 C-679 794.01 -679 793.02 -679 792 C-679.99 792 -680.98 792 -682 792 C-682 791.01 -682 790.02 -682 789 C-682.763125 788.896875 -683.52625 788.79375 -684.3125 788.6875 C-687.18416484 787.95288806 -688.23042094 787.3283935 -690 785 C-690 784.34 -690 783.68 -690 783 C-690.61875 782.7525 -691.2375 782.505 -691.875 782.25 C-694 781 -694 781 -695 778.9375 C-695.33 778.298125 -695.66 777.65875 -696 777 C-697.32303717 776.6278958 -698.65737935 776.29369827 -700 776 C-700.99 774.515 -700.99 774.515 -702 773 C-702.66 773 -703.32 773 -704 773 C-704.33 771.68 -704.66 770.36 -705 769 C-705.99 769 -706.98 769 -708 769 C-708 767.68 -708 766.36 -708 765 C-709.0828125 765.12375 -709.0828125 765.12375 -710.1875 765.25 C-713.87177675 764.92250873 -715.35112602 763.50171432 -718 761 C-718.33 760.34 -718.66 759.68 -719 759 C-721.02463255 758.34786708 -721.02463255 758.34786708 -723 758 C-723 756.68 -723 755.36 -723 754 C-723.99 754 -724.98 754 -726 754 C-726 753.01 -726 752.02 -726 751 C-727.32 751 -728.64 751 -730 751 C-730 750.01 -730 749.02 -730 748 C-730.61875 747.87625 -731.2375 747.7525 -731.875 747.625 C-734 747 -734 747 -736 745 C-737.09878951 744.05620347 -738.20358666 743.11938061 -739.3125 742.1875 C-747.64952532 735.05142405 -747.64952532 735.05142405 -749 731 C-751.01508358 730.26676204 -751.01508358 730.26676204 -753 730 C-753 729.34 -753 728.68 -753 728 C-753.8353125 727.9071875 -753.8353125 727.9071875 -754.6875 727.8125 C-757.2663747 726.90640889 -758.53125701 725.63456282 -760.375 723.6640625 C-763.32735883 720.64073351 -766.54090589 717.89518108 -769.6953125 715.0859375 C-774.86407767 710.40776699 -774.86407767 710.40776699 -776 707 C-776.66 706.71125 -777.32 706.4225 -778 706.125 C-780 705 -780 705 -780.75 702.375 C-780.8325 701.59125 -780.915 700.8075 -781 700 C-781.94875 699.9175 -782.8975 699.835 -783.875 699.75 C-787 699 -787 699 -788.375 696.9375 C-788.58125 696.298125 -788.7875 695.65875 -789 695 C-789.99 695 -790.98 695 -792 695 C-792 694.34 -792 693.68 -792 693 C-792.61875 692.7525 -793.2375 692.505 -793.875 692.25 C-796.4072196 690.76045906 -796.80718658 689.62418952 -798 687 C-798.8353125 686.2884375 -798.8353125 686.2884375 -799.6875 685.5625 C-800.120625 685.046875 -800.55375 684.53125 -801 684 C-800.6875 681.3125 -800.6875 681.3125 -800 679 C-801.11375 679.0309375 -801.11375 679.0309375 -802.25 679.0625 C-805.62483572 677.7585862 -805.84633182 676.89310067 -807.3125 673.6875 C-808.69134074 670.39027215 -809 668.69656362 -809 665 C-809.66 665 -810.32 665 -811 665 C-811.144375 663.865625 -811.28875 662.73125 -811.4375 661.5625 C-811.61171478 658.19222799 -811.61171478 658.19222799 -813 657 C-813.08775605 654.85441173 -813.10695219 652.70595579 -813.09765625 650.55859375 C-813.09443359 649.25341797 -813.09121094 647.94824219 -813.08789062 646.60351562 C-813.07953401 645.2148431 -813.07106905 643.82617123 -813.0625 642.4375 C-813.05748666 641.04492344 -813.05292347 639.65234519 -813.04882812 638.25976562 C-813.03699434 634.8398013 -813.0205088 631.41992156 -813 628 C-812.01 627.67 -811.02 627.34 -810 627 C-810.99 626.34 -811.98 625.68 -813 625 C-813.37231445 622.94042969 -813.37231445 622.94042969 -813.36328125 620.421875 C-813.36263672 619.50792969 -813.36199219 618.59398437 -813.36132812 617.65234375 C-813.34521484 616.69457031 -813.32910156 615.73679687 -813.3125 614.75 C-813.31572266 613.80769531 -813.31894531 612.86539063 -813.32226562 611.89453125 C-813.28322198 606.83305549 -812.85850526 602.7684358 -811 598 C-811 597.01 -811 596.02 -811 595 C-810.01 594.67 -809.02 594.34 -808 594 C-807.67 592.02 -807.34 590.04 -807 588 C-806.34 588 -805.68 588 -805 588 C-805.268125 587.46375 -805.53625 586.9275 -805.8125 586.375 C-806 584 -806 584 -803.75 580.75 C-802.38875 579.38875 -802.38875 579.38875 -801 578 C-800.01 578 -799.02 578 -798 578 C-798 576.68 -798 575.36 -798 574 C-797.01 574 -796.02 574 -795 574 C-794.896875 572.906875 -794.79375 571.81375 -794.6875 570.6875 C-794 567 -794 567 -792.625 565.0625 C-791 564 -791 564 -788 564 C-786.824375 562.515 -786.824375 562.515 -785.625 561 C-783 558 -783 558 -780.1875 557.625 C-779.1046875 557.810625 -779.1046875 557.810625 -778 558 C-778 557.01 -778 556.02 -778 555 C-777.34 555 -776.68 555 -776 555 C-776 554.34 -776 553.68 -776 553 C-772.62182575 552.15545644 -770.32534757 551.89155081 -767 553 C-766.8453125 552.0409375 -766.8453125 552.0409375 -766.6875 551.0625 C-766.460625 550.381875 -766.23375 549.70125 -766 549 C-765.01 548.67 -764.02 548.34 -763 548 C-763 547.01 -763 546.02 -763 545 C-761.329375 544.814375 -761.329375 544.814375 -759.625 544.625 C-755.96896323 544.3534187 -755.96896323 544.3534187 -754 542 C-751.41935871 541.85502015 -748.95056116 541.81322455 -746.375 541.875 C-745.66859375 541.88402344 -744.9621875 541.89304687 -744.234375 541.90234375 C-742.48943902 541.92592397 -740.74467705 541.96179539 -739 542 C-739 541.01 -739 540.02 -739 539 C-738.4016333 539.00523682 -737.8032666 539.01047363 -737.18676758 539.01586914 C-720.52330374 539.57178909 -720.52330374 539.57178909 -704 538 C-703.67 537.34 -703.34 536.68 -703 536 C-692.77 535.67 -682.54 535.34 -672 535 C-671.67 534.34 -671.34 533.68 -671 533 C-668.19921875 532.55078125 -668.19921875 532.55078125 -664.6875 532.3125 C-663.53636719 532.22613281 -662.38523437 532.13976562 -661.19921875 532.05078125 C-658.47624148 532.00755939 -656.57769369 532.28363382 -654 533 C-653.67 532.67 -653.34 532.34 -653 532 C-650.91722045 532.17954996 -648.87731129 532.51927966 -646.8125 532.84375 C-646.214375 532.8953125 -645.61625 532.946875 -645 533 C-644.67 532.67 -644.34 532.34 -644 532 C-637.28 532.72 -637.28 532.72 -636 534 C-635.62254639 533.18289551 -635.24509277 532.36579102 -634.85620117 531.52392578 C-633 529 -633 529 -630.3996582 528.47998047 C-628.86571411 528.54789795 -628.86571411 528.54789795 -627.30078125 528.6171875 C-626.17349609 528.64683594 -625.04621094 528.67648437 -623.88476562 528.70703125 C-622.11649414 528.79017578 -622.11649414 528.79017578 -620.3125 528.875 C-612.33811399 529.2030181 -606.33248748 529.26800674 -599 526 C-596.2421875 525.453125 -596.2421875 525.453125 -593.875 525.25 C-593.08867188 525.17265625 -592.30234375 525.0953125 -591.4921875 525.015625 C-589 525 -589 525 -586.26953125 525.5390625 C-581.98153323 526.14358313 -578.0889835 525.65912689 -573.8125 525.125 C-572.60303711 524.98771484 -572.60303711 524.98771484 -571.36914062 524.84765625 C-568.06751069 524.45793767 -565.16830745 524.05610248 -562 523 C-559.20374821 522.76553168 -556.42605112 522.57778348 -553.625 522.4375 C-552.42520508 522.3748999 -552.42520508 522.3748999 -551.20117188 522.31103516 C-532.23511729 521.38244136 -532.23511729 521.38244136 -529 523 C-528.67 522.01 -528.34 521.02 -528 520 C-524.94375445 518.79485994 -521.90073671 518.88402808 -518.6484375 518.90234375 C-517.63265625 518.90556641 -516.616875 518.90878906 -515.5703125 518.91210938 C-514.51585937 518.92048828 -513.46140625 518.92886719 -512.375 518.9375 C-511.3128125 518.94201172 -510.250625 518.94652344 -509.15625 518.95117188 C-506.43745308 518.96327848 -503.71875506 518.98103466 -501 519 C-500.34 519 -499.68 519 -499 519 C-496.44916213 519.44639663 -494.32216136 519.83891932 -492 521 C-491.67 519.35 -491.34 517.7 -491 516 C-489.0625 515.4375 -489.0625 515.4375 -487 515 C-486.67 515.33 -486.34 515.66 -486 516 C-483.852551 516.01681089 -481.70448048 515.96251223 -479.55859375 515.87890625 C-478.25341797 515.83056641 -476.94824219 515.78222656 -475.60351562 515.73242188 C-474.21483925 515.67589169 -472.82616743 515.61924959 -471.4375 515.5625 C-470.04493979 515.50929453 -468.65236174 515.45655404 -467.25976562 515.40429688 C-463.83964019 515.27411909 -460.41977076 515.1391382 -457 515 C-457 514.34 -457 513.68 -457 513 C-451.08397298 511.27391212 -444.42813614 510.8573477 -438.8125 513.5 C-438.214375 513.995 -437.61625 514.49 -437 515 C-436.62875 514.484375 -436.2575 513.96875 -435.875 513.4375 C-435.25625 512.963125 -434.6375 512.48875 -434 512 C-431.99100513 512.27395385 -429.99110401 512.61709538 -428 513 C-420.45340617 512.44209459 -420.45340617 512.44209459 -414 509 C-412.58620481 508.90068381 -411.16727151 508.87030705 -409.75 508.875 C-408.98171875 508.87242187 -408.2134375 508.86984375 -407.421875 508.8671875 C-405 509 -405 509 -402.6875 509.55859375 C-399.11128805 510.14596577 -395.80245244 509.69059298 -392.25 509.1875 C-391.56550781 509.10435547 -390.88101562 509.02121094 -390.17578125 508.93554688 C-388.43847295 508.69989218 -386.71629639 508.35791059 -385 508 C-384.67 507.34 -384.34 506.68 -384 506 C-383.43079834 506.00523682 -382.86159668 506.01047363 -382.27514648 506.01586914 C-379.66260917 506.03682887 -377.05008963 506.04972004 -374.4375 506.0625 C-373.54224609 506.07087891 -372.64699219 506.07925781 -371.72460938 506.08789062 C-366.70401482 506.10628108 -361.97109481 505.79767247 -357 505 C-355.96875 505.04125 -354.9375 505.0825 -353.875 505.125 C-350.92168553 505.23787362 -350.92168553 505.23787362 -348.5625 503.4375 C-345.05308803 501.46880548 -342.88491534 502.30626512 -339 503 C-337.328451 502.69208308 -335.66194453 502.35613097 -334 502 C-329.45633503 501.77895684 -325.409992 501.88209784 -321 503 C-318.66699067 503.03888349 -316.33290199 503.0448635 -314 503 C-313.67 502.01 -313.34 501.02 -313 500 C-310.57933169 498.78966585 -309.01833058 498.87077197 -306.31640625 498.8671875 C-304.92518555 498.86525391 -304.92518555 498.86525391 -303.50585938 498.86328125 C-302.04889648 498.86908203 -302.04889648 498.86908203 -300.5625 498.875 C-299.59505859 498.87113281 -298.62761719 498.86726563 -297.63085938 498.86328125 C-296.70208984 498.86457031 -295.77332031 498.86585938 -294.81640625 498.8671875 C-293.96506104 498.86831543 -293.11371582 498.86944336 -292.23657227 498.87060547 C-290 499 -290 499 -287 500 C-286.67 499.67 -286.34 499.34 -286 499 C-283.32941149 498.85884839 -280.67567762 498.95752893 -278 499 C-277.34 497.68 -276.68 496.36 -276 495 C-271.52785585 494.90683033 -267.18197665 494.90277829 -262.75 495.5625 C-259.41050545 495.9521077 -257.19659901 495.89904347 -254 495 C-253.71125 494.071875 -253.4225 493.14375 -253.125 492.1875 C-252 489 -252 489 -250 486 C-249.34 486 -248.68 486 -248 486 C-248 483.69 -248 481.38 -248 479 C-247.01 478.67 -246.02 478.34 -245 478 C-244.87625 476.906875 -244.7525 475.81375 -244.625 474.6875 C-244 471 -244 471 -242 468 C-241.855625 467.360625 -241.71125 466.72125 -241.5625 466.0625 C-241 464 -241 464 -239.5625 462.1875 C-237.51046008 459.31464411 -236.92355721 456.38637645 -236 453 C-235.34 452.01 -234.68 451.02 -234 450 C-234 449.01 -234 448.02 -234 447 C-233.34 447 -232.68 447 -232 447 C-231.896875 446.236875 -231.79375 445.47375 -231.6875 444.6875 C-231 442 -231 442 -229.4375 440.625 C-227.1286701 438.01501838 -227.81146756 435.33073979 -228 432 C-227.34 432 -226.68 432 -226 432 C-225.90203125 431.39671875 -225.8040625 430.7934375 -225.703125 430.171875 C-224.73702276 425.00822507 -223.81264843 422.68965978 -220 419 C-219.59270772 416.67843403 -219.25561323 414.3431213 -219 412 C-218.34 411.01 -217.68 410.02 -217 409 C-216.60612212 406.67612053 -216.26513915 404.34206251 -216 402 C-215.34 402 -214.68 402 -214 402 C-213.731875 400.824375 -213.46375 399.64875 -213.1875 398.4375 C-211.85426867 393.16051444 -210.23433764 388.5086349 -206.75 384.25 C-206.1725 383.5075 -205.595 382.765 -205 382 C-205.33 381.01 -205.66 380.02 -206 379 C-205.01 378.67 -204.02 378.34 -203 378 C-203 376.02 -203 374.04 -203 372 C-201.68 371.34 -200.36 370.68 -199 370 C-199.33 368.02 -199.66 366.04 -200 364 C-198.68 363.34 -197.36 362.68 -196 362 C-196.185625 361.21625 -196.37125 360.4325 -196.5625 359.625 C-197 357 -197 357 -196 355 C-195.01 355 -194.02 355 -193 355 C-193.1546875 353.7625 -193.1546875 353.7625 -193.3125 352.5 C-192.94604292 348.3956807 -191.69079777 346.61618416 -189.44140625 343.27734375 C-185.65558272 337.29594777 -182.92483034 331.02871058 -182 324 C-181.34 323.67 -180.68 323.34 -180 323 C-179.34444881 320.47266765 -179.34444881 320.47266765 -179 318 C-178.01 317.67 -177.02 317.34 -176 317 C-176 315.02 -176 313.04 -176 311 C-175.01 311 -174.02 311 -173 311 C-173.02320313 310.38511719 -173.04640625 309.77023437 -173.0703125 309.13671875 C-173.09738281 307.92435547 -173.09738281 307.92435547 -173.125 306.6875 C-173.14820313 305.88699219 -173.17140625 305.08648437 -173.1953125 304.26171875 C-173 302 -173 302 -171 299 C-170.61500109 297.34450469 -170.27206865 295.6777567 -170 294 C-169.01 294 -168.02 294 -167 294 C-166.87625 293.030625 -166.7525 292.06125 -166.625 291.0625 C-166.41875 290.051875 -166.2125 289.04125 -166 288 C-165.34 287.67 -164.68 287.34 -164 287 C-163.26924352 284.6859378 -162.59861742 282.35171131 -162 280 C-161.01 280 -160.02 280 -159 280 C-158.9071875 278.6696875 -158.9071875 278.6696875 -158.8125 277.3125 C-158.12918817 272.31514483 -156.06962676 267.81685781 -154.15625 263.18359375 C-153.03478922 260.09578788 -152.50798783 257.2338868 -152 254 C-151 252 -150 250 -149 248 C-148.66055205 246.00102872 -148.32578384 244.00124361 -148 242 C-147.34 241.67 -146.68 241.34 -146 241 C-145.09274566 238.88672575 -145.09274566 238.88672575 -144.375 236.4375 C-143.98441406 235.19806641 -143.98441406 235.19806641 -143.5859375 233.93359375 C-143.29589844 232.97646484 -143.29589844 232.97646484 -143 232 C-142.34 232 -141.68 232 -141 232 C-140.67 229.69 -140.34 227.38 -140 225 C-139.01 224.67 -138.02 224.34 -137 224 C-136.55421596 221.94253521 -136.11913529 219.88224498 -135.734375 217.8125 C-134.54901678 213.27283022 -132.41137408 209.20933433 -130.33984375 205.015625 C-129.1279637 202.28801159 -128.44059661 199.93731072 -128 197 C-127.01 197 -126.02 197 -125 197 C-124.896875 195.7625 -124.79375 194.525 -124.6875 193.25 C-124.25644478 189.58924746 -123.22203218 187.92904242 -121 185 C-121.22197813 182.3015411 -121.22197813 182.3015411 -122 180 C-121.01 180 -120.02 180 -119 180 C-118.8453125 178.576875 -118.8453125 178.576875 -118.6875 177.125 C-118 174 -118 174 -115 172 C-114.63702064 170.02252878 -114.63702064 170.02252878 -114.8125 167.875 C-114.9053125 165.956875 -114.9053125 165.956875 -115 164 C-114.34 163.67 -113.68 163.34 -113 163 C-112.690625 162.071875 -112.38125 161.14375 -112.0625 160.1875 C-111.05930553 157.1779166 -110.13538598 155.31333481 -108 153 C-107.34 153 -106.68 153 -106 153 C-105.98582031 152.443125 -105.97164062 151.88625 -105.95703125 151.3125 C-105.61174534 145.78792542 -104.35243165 142.45126 -101.2109375 137.9296875 C-99.41588388 135.0691827 -98.75068383 132.27571124 -98 129 C-96.68 129 -95.36 129 -94 129 C-94.05220703 128.09507812 -94.05220703 128.09507812 -94.10546875 127.171875 C-94.36092612 119.62980021 -94.36092612 119.62980021 -91 116 C-90.63957118 114.67373458 -90.30992394 113.33896827 -90 112 C-89.49860111 110.57633889 -88.97775954 109.15937271 -88.4375 107.75 C-88.03337891 106.69039062 -88.03337891 106.69039062 -87.62109375 105.609375 C-87.31365234 104.81273437 -87.31365234 104.81273437 -87 104 C-86.34 104 -85.68 104 -85 104 C-84.93941406 103.30132812 -84.87882813 102.60265625 -84.81640625 101.8828125 C-84.73261719 100.97273438 -84.64882813 100.06265625 -84.5625 99.125 C-84.48128906 98.22007812 -84.40007813 97.31515625 -84.31640625 96.3828125 C-84 94 -84 94 -83 92 C-82.34 92 -81.68 92 -81 92 C-81 91.01 -81 90.02 -81 89 C-80.34 89 -79.68 89 -79 89 C-78.896875 87.989375 -78.79375 86.97875 -78.6875 85.9375 C-77.97868694 81.87793427 -76.69952313 78.73895088 -75 75 C-74.67 73.88625 -74.34 72.7725 -74 71.625 C-73.67 70.75875 -73.34 69.8925 -73 69 C-71.515 68.505 -71.515 68.505 -70 68 C-70.0928125 66.329375 -70.0928125 66.329375 -70.1875 64.625 C-70.125625 63.42875 -70.06375 62.2325 -70 61 C-69.01 60.34 -68.02 59.68 -67 59 C-66.87625 58.13375 -66.7525 57.2675 -66.625 56.375 C-65.90690671 52.49729622 -64.42983684 50.38207159 -62.26171875 47.1640625 C-60.5254732 44.18610573 -59.69934889 41.11531311 -58.87109375 37.78515625 C-58 36 -58 36 -55.91015625 35.24609375 C-55.27980469 35.16488281 -54.64945313 35.08367187 -54 35 C-54 34.34 -54 33.68 -54 33 C-53.3709375 32.92265625 -52.741875 32.8453125 -52.09375 32.765625 C-49.83242341 32.21504731 -49.83242341 32.21504731 -49.09375 30.109375 C-48.8978125 29.33078125 -48.701875 28.5521875 -48.5 27.75 C-47.30255154 23.72221882 -46.12767665 20.94895227 -43 18 C-39.75 16.6875 -39.75 16.6875 -37 16 C-37 15.01 -37 14.02 -37 13 C-35.68 13.33 -34.36 13.66 -33 14 C-33 13.01 -33 12.02 -33 11 C-31.68 11 -30.36 11 -29 11 C-29 10.34 -29 9.68 -29 9 C-28.01 9 -27.02 9 -26 9 C-26 8.34 -26 7.68 -26 7 C-18.71428571 3.42857143 -18.71428571 3.42857143 -14 5 C-13.34 3.35 -12.68 1.7 -12 0 C-3.93277311 -1.21008403 -3.93277311 -1.21008403 0 0 Z M-7 1351 C-3 1352 -3 1352 -3 1352 Z M556 1434 C557 1436 557 1436 557 1436 Z " fill="#00FF00" transform="translate(813,36)"/>
</svg>
