<?xml version="1.0" encoding="UTF-8"?>
<svg version="1.1" xmlns="http://www.w3.org/2000/svg" width="512" height="512">
<path d="M0 0 C7.2725291 2.44474464 14.48089041 4.58300391 22 6.125 C22.7532959 6.28000977 23.5065918 6.43501953 24.28271484 6.59472656 C31.71761822 8.05804088 39.03205932 8.90447961 46.61328125 8.953125 C47.34974884 8.96018463 48.08621643 8.96724426 48.84500122 8.97451782 C72.64251711 9.15084676 94.38727278 7.27791892 116.92480469 -1.10546875 C126.49362007 -4.6362746 133.31411617 -3.60705926 142.5 0.5625 C143.40693604 0.96412354 144.31387207 1.36574707 145.24829102 1.77954102 C165.35561629 10.90303679 183.13730579 23.16863206 199.625 37.75 C200.15931641 38.22115234 200.69363281 38.69230469 201.24414062 39.17773438 C207.46308539 44.68980997 213.36764522 50.29531805 218.625 56.75 C219.5141959 57.80349263 220.4035316 58.85686728 221.29296875 59.91015625 C247.50160199 91.37088211 270.94946121 137.72845792 269.625 179.75 C268.75215414 186.34709084 265.92736026 190.06321465 260.953125 194.33984375 C255.867698 197.42011078 250.54063275 198.00017363 244.69803047 198.00447559 C243.70226105 198.00928531 243.70226105 198.00928531 242.68637508 198.01419219 C240.47011828 198.02246918 238.25413336 198.01657611 236.03787231 198.01069641 C234.42957122 198.01371815 232.82127155 198.01760774 231.21297443 198.02228898 C226.79952681 198.03257486 222.38616037 198.03038565 217.97270608 198.02610838 C213.21050403 198.02364224 208.44832159 198.03265394 203.68612671 198.04014587 C194.35879662 198.05289799 185.03149531 198.05468592 175.70415796 198.05234561 C168.12287649 198.05056286 160.54160376 198.05231116 152.96032333 198.05657005 C151.88147939 198.05716524 150.80263544 198.05776043 149.69109925 198.05837366 C147.49945157 198.0595854 145.30780389 198.06079954 143.11615621 198.06201603 C122.56080515 198.07289355 102.0054705 198.07072808 81.45011853 198.06463119 C62.6454975 198.05946185 43.84092827 198.07071756 25.03631748 198.08972941 C5.72752562 198.10910134 -13.58124173 198.11736494 -32.89004338 198.11360615 C-43.73037173 198.11169313 -54.57065598 198.11419154 -65.41097641 198.12832069 C-74.63944055 198.14022723 -83.86783346 198.14164753 -93.09629856 198.12953053 C-97.80422797 198.12363676 -102.51202704 198.12255622 -107.21994781 198.13453293 C-111.53170841 198.14537431 -115.84322957 198.14230915 -120.15497889 198.12827124 C-121.71279284 198.12561951 -123.27062544 198.12800581 -124.8284211 198.13600711 C-142.85366166 198.2221463 -142.85366166 198.2221463 -149.71484375 192.953125 C-154.63707109 186.93573216 -156.63897639 182.26309077 -156.3125 174.375 C-151.77587856 129.72241143 -133.0138744 86.78814783 -102.37890625 53.90625 C-100.51717233 51.90298076 -98.7576884 49.84426703 -97 47.75 C-79.34940564 27.65239142 -55.397106 12.96679983 -31.375 1.75 C-30.27027344 1.22148437 -29.16554688 0.69296875 -28.02734375 0.1484375 C-27.00769531 -0.31304687 -25.98804688 -0.77453125 -24.9375 -1.25 C-23.64005859 -1.8378125 -23.64005859 -1.8378125 -22.31640625 -2.4375 C-14.30558716 -4.6503159 -7.63231072 -2.69818116 0 0 Z " fill="#383838" transform="translate(199.375,302.25)"/>
<path d="M0 0 C23.09337507 -0.64747781 44.92941792 5.05048535 65.03125 16.15625 C65.97871094 16.67316406 66.92617188 17.19007812 67.90234375 17.72265625 C74.10705104 21.27511737 79.58265138 25.5432737 85.03125 30.15625 C85.84464844 30.82269531 86.65804687 31.48914063 87.49609375 32.17578125 C110.92917101 52.12906505 125.06930756 82.78093996 127.75 113.15625 C130.38529379 148.63135865 119.1233782 180.68347403 96.19042969 207.55029297 C74.58203852 232.19289377 43.37193741 245.80836827 11.03125 248.15625 C-12.92582168 249.70274274 -36.13407562 243.66689189 -56.96875 232.15625 C-57.91621094 231.63933594 -58.86367187 231.12242187 -59.83984375 230.58984375 C-66.04474762 227.03727008 -71.5193778 222.7685713 -76.96875 218.15625 C-77.77054688 217.50140625 -78.57234375 216.8465625 -79.3984375 216.171875 C-102.72305353 196.34967735 -116.48482838 166.57475168 -119.71875 136.40625 C-119.82770481 134.6576582 -119.91004303 132.90724913 -119.96875 131.15625 C-120.00871094 130.10695312 -120.04867187 129.05765625 -120.08984375 127.9765625 C-120.53554188 104.85269468 -115.29156255 83.31359573 -103.96875 63.15625 C-103.1953125 61.74279297 -103.1953125 61.74279297 -102.40625 60.30078125 C-98.86035965 54.08583756 -94.58422908 48.60935307 -89.96875 43.15625 C-89.31390625 42.35445312 -88.6590625 41.55265625 -87.984375 40.7265625 C-67.75472373 16.92249917 -38.21436191 4.06920923 -7.65625 0.40625 C-5.10548426 0.23154002 -2.55330812 0.13438464 0 0 Z " fill="#383838" transform="translate(251.96875,11.84375)"/>
</svg>
