<?xml version="1.0" encoding="UTF-8"?>
<svg version="1.1" xmlns="http://www.w3.org/2000/svg" width="2133" height="2133">
<path d="M0 0 C0.89847656 0.25249512 1.79695312 0.50499023 2.72265625 0.76513672 C13.64762685 3.90327878 24.43414341 7.47428017 35.21875 11.05859375 C102.86823047 33.49839061 170.66943161 46.74777238 242.09966278 46.32661438 C244.73622142 46.31223427 247.37275204 46.30315757 250.00933838 46.29553223 C275.0446155 46.21928664 300.03359383 46.01781261 325 44 C326.67349874 43.86974207 328.3470015 43.73953572 330.02050781 43.609375 C392.36788329 38.67231294 451.89600256 26.25289207 511 6 C566.92855473 -13.15559008 608.54939139 3.75678587 659.65234375 28.71484375 C675.07495723 36.28366062 690.15537869 44.3447522 705 53 C706.50887837 53.87020138 708.01798098 54.74001409 709.52734375 55.609375 C757.04963516 83.12228055 801.6558563 115.95563642 843.3671875 151.60546875 C845.08593704 153.07339599 846.80848996 154.53678241 848.53125 156 C854.97606129 161.48561613 861.32053006 167.05294241 867.55859375 172.7734375 C869.66154833 174.69133207 871.78669156 176.57376045 873.9375 178.4375 C882.3995807 185.80769932 890.56976041 193.50785424 898.75 201.1875 C899.79498657 202.16674438 899.79498657 202.16674438 900.86108398 203.16577148 C907.50996792 209.42396162 914.00930548 215.74970501 919.9609375 222.6796875 C922.03545613 225.04034663 924.16466961 227.33930708 926.30957031 229.63574219 C931.30275224 234.98402251 936.0806696 240.42425455 940.6640625 246.1328125 C943.33875016 249.41579033 946.10219348 252.61253139 948.875 255.8125 C954.28631548 262.0852887 959.43991785 268.5262612 964.5078125 275.078125 C966.11074785 277.14263859 967.72632058 279.19682476 969.34375 281.25 C976.95842048 290.93821363 984.31105561 300.78122639 991.45166016 310.82373047 C992.9349678 312.90859397 994.4258065 314.9878752 995.91796875 317.06640625 C1025.80616692 358.86847051 1051.92428811 403.10904173 1075 449 C1075.29819641 449.59296875 1075.59639282 450.1859375 1075.90362549 450.796875 C1111.76974417 522.27927667 1137.7745834 599.45624149 1153 735 C1153.03287109 736.267229 1153.03287109 736.267229 1153.06640625 737.56005859 C1153.73630464 766.30428195 1147.56962956 788.33673994 1128 810 C1127.36964844 810.70253906 1126.73929688 811.40507812 1126.08984375 812.12890625 C1108.00784736 831.23683152 1080.03994798 835.17711657 1055 836 C1045.97828195 836.17535649 1036.9540445 836.13629266 1027.93105888 836.12863445 C1025.1836883 836.1294279 1022.4363194 836.13172631 1019.68894964 836.13394669 C1013.71614317 836.1379796 1007.74334541 836.1383357 1001.77053808 836.13624074 C992.82904742 836.13312179 983.88756469 836.13578762 974.94607461 836.13953945 C959.70403938 836.145764 944.46200701 836.14724692 929.2199707 836.14612198 C913.77879877 836.1449967 898.33762924 836.1460345 882.89645767 836.14969444 C881.43229899 836.15003892 881.43229899 836.15003892 879.93856135 836.15039036 C875.96289053 836.15133202 871.98721971 836.15228771 868.01154889 836.15326155 C826.56091225 836.16340002 785.11027696 836.1664673 743.65963922 836.16705366 C739.19971632 836.16711841 734.73979341 836.16718635 730.27987051 836.16725707 C728.61975052 836.16728258 728.61975052 836.16728258 726.92609275 836.1673086 C702.39388359 836.16771717 677.86167468 836.16990741 653.32946565 836.17241292 C643.22622925 836.17344127 633.12299284 836.17443131 623.01975644 836.17542917 C621.90342869 836.17553975 620.78710095 836.17565034 619.63694509 836.17576428 C555.67675045 836.18208729 491.71655598 836.1862135 427.75636101 836.18575573 C425.3632887 836.18573995 422.97021638 836.18572422 420.57714407 836.18570852 C409.77271543 836.18563514 398.96828679 836.18554697 388.16385815 836.18545464 C383.3459186 836.18541351 378.52797906 836.18537337 373.71003951 836.18533332 C371.29857673 836.18531293 368.88711394 836.18529191 366.47565115 836.18527026 C290.19909749 836.18458981 213.92254846 836.19191141 137.64599609 836.20581055 C118.42258137 836.20931154 99.19916664 836.21278098 79.97575188 836.21607494 C78.2002819 836.21637925 78.2002819 836.21637925 76.38894384 836.21668971 C39.91390879 836.22290367 3.43887413 836.22667006 -33.03616142 836.22793293 C-34.18114308 836.22797288 -35.32612473 836.22801283 -36.5058028 836.22805399 C-61.63943866 836.22890722 -86.77307449 836.22916848 -111.90671036 836.22888362 C-120.89956368 836.22878713 -129.892417 836.22873509 -138.88527032 836.22870489 C-141.12246591 836.22869697 -143.35966151 836.22868677 -145.5968571 836.22867426 C-181.2532845 836.2284979 -216.90970792 836.23419762 -252.56613418 836.24282808 C-288.47023589 836.25147434 -324.37433211 836.25367234 -360.27843443 836.24706676 C-365.23870954 836.24615445 -370.19898466 836.24531118 -375.1592598 836.24450874 C-376.13161031 836.24434866 -377.10396083 836.24418857 -378.10577651 836.24402363 C-393.50669519 836.24166993 -408.90760436 836.2460298 -424.30852125 836.25317993 C-439.44933675 836.260069 -454.59013819 836.2598287 -469.73095338 836.25198779 C-478.60874505 836.24760371 -487.48649534 836.24868445 -496.36428358 836.25785458 C-502.26212759 836.26339949 -508.15994074 836.26167519 -514.05778237 836.2540718 C-517.39989152 836.24996558 -520.74185309 836.25002598 -524.08396759 836.25682249 C-546.40810037 836.29918398 -566.04143364 836.20280017 -585 823 C-586.35931641 822.15695312 -586.35931641 822.15695312 -587.74609375 821.296875 C-605.34834958 809.81171517 -616.90536053 786.20236732 -621.8125 766.4375 C-626.14359085 741.80285609 -621.87834672 716.4131362 -618 692 C-617.85951233 691.11513916 -617.71902466 690.23027832 -617.57427979 689.31860352 C-606.22176697 618.37853606 -586.90052618 549.23435091 -559 483 C-558.52111328 481.86127441 -558.04222656 480.72254883 -557.54882812 479.54931641 C-542.45777074 443.94619415 -524.92249405 409.13531091 -505 376 C-504.41331543 375.01773437 -503.82663086 374.03546875 -503.22216797 373.0234375 C-495.50000396 360.10467664 -487.52756063 347.40275003 -479 335 C-478.45375977 334.20529297 -477.90751953 333.41058594 -477.34472656 332.59179688 C-457.55665741 303.89740339 -436.4921628 276.06511832 -413.03515625 250.25 C-411.22622457 248.25010625 -409.45108199 246.22730568 -407.6875 244.1875 C-405.12868611 241.24545362 -402.50201664 238.37458341 -399.8449707 235.52099609 C-391.95795225 227.04970751 -384.43910141 218.29119474 -377 209.42578125 C-371.62552228 203.04965262 -366.11459427 196.95701668 -360.15283203 191.12329102 C-357.42469647 188.44971816 -354.83535792 185.73381491 -352.375 182.8125 C-349.05764396 178.9140013 -345.31763837 175.6051294 -341.48046875 172.2265625 C-339.19608724 170.17601532 -337.02591325 168.06394511 -334.875 165.875 C-331.08219375 162.03704129 -327.10010825 158.50471299 -323 155 C-321.98137419 154.1176452 -320.96317863 153.23479355 -319.9453125 152.3515625 C-286.03378856 122.99862074 -249.37852916 97.17767831 -211 74 C-210.14825195 73.48405273 -209.29650391 72.96810547 -208.41894531 72.43652344 C-174.66386941 52.05155276 -139.67307321 33.84300146 -104.0625 16.9375 C-103.25058197 16.55193939 -102.43866394 16.16637878 -101.60214233 15.76913452 C-92.51493579 11.46244263 -83.39215315 7.23342523 -74.23828125 3.0703125 C-73.41562271 2.69281357 -72.59296417 2.31531464 -71.74537659 1.92637634 C-50.03148703 -7.88427684 -22.59679707 -6.36731782 0 0 Z " fill="#00FF00" transform="translate(802,1249)"/>
<path d="M0 0 C1.30941559 -0.00067474 2.61883118 -0.00134949 3.96792603 -0.00204468 C23.98263133 0.01430983 43.58836952 0.54885929 63.4375 3.25 C64.71270508 3.41628906 65.98791016 3.58257812 67.30175781 3.75390625 C139.36279081 13.35967219 208.94045429 38.1889344 271.4375 75.25 C272.23639648 75.71712402 273.03529297 76.18424805 273.85839844 76.66552734 C285.56284018 83.51862617 296.58399835 91.12300724 307.4375 99.25 C308.02337891 99.68666992 308.60925781 100.12333984 309.21289062 100.57324219 C322.26427105 110.33468389 334.72589795 120.87783836 347.1171875 131.45703125 C348.96783245 133.03567939 350.83987815 134.56640281 352.75244141 136.0703125 C360.39894439 142.13686648 367.29045941 148.79604454 374.16308594 155.71484375 C376.05965939 157.62214332 377.96670305 159.51850059 379.875 161.4140625 C386.13742326 167.67002583 392.10883735 173.96913915 397.58959961 180.93066406 C399.43598761 183.24810177 401.37405686 185.44049862 403.375 187.625 C408.4036751 193.23771414 412.93667353 199.21348716 417.4375 205.25 C417.92879395 205.90613281 418.42008789 206.56226563 418.92626953 207.23828125 C432.90124171 225.98336549 445.18287009 245.76717622 456.4375 266.25 C456.91896484 267.12108398 457.40042969 267.99216797 457.89648438 268.88964844 C494.70681521 335.94932323 516.49143485 413.78671339 519.6875 512.4375 C519.68851212 513.96144379 519.68851212 513.96144379 519.68954468 515.51617432 C519.59618359 605.08522707 497.11028565 694.36866528 452.4375 772.25 C451.82890137 773.3136377 451.22030273 774.37727539 450.59326172 775.47314453 C433.14160458 805.814881 413.17187158 834.72842506 390.4375 861.375 C389.99970215 861.88844971 389.5619043 862.40189941 389.11083984 862.9309082 C380.71607842 872.65853002 371.89507639 881.96038778 362.79321289 891.0246582 C361.23660611 892.57584727 359.68549829 894.13239392 358.13476562 895.68945312 C352.74289378 901.08566039 347.28339021 906.34227284 341.4375 911.25 C340.79401611 911.79487061 340.15053223 912.33974121 339.48754883 912.90112305 C312.51313403 935.60787462 283.48078781 955.39823135 252.44873047 972.15625 C250.62387326 973.14864625 248.81300795 974.16666446 247.00390625 975.1875 C180.17369517 1012.27247262 100.9937756 1031.47073241 -135.45507812 1017.44970703 C-170.49851662 1007.31492546 -204.01986188 993.65961574 -236.5625 977.25 C-238.13064453 976.46278564 -238.13064453 976.46278564 -239.73046875 975.65966797 C-270.86092645 959.95991249 -298.90884074 940.83698341 -325.78613281 918.71044922 C-328.26580314 916.67177578 -330.75923813 914.65009769 -333.25 912.625 C-347.18676217 901.19936615 -360.61254951 889.38702271 -373.3581543 876.63964844 C-375.12074523 874.87924948 -376.89121039 873.12703618 -378.66210938 871.375 C-385.43054717 864.63963438 -391.63176945 857.74251825 -397.5625 850.25 C-398.48539262 849.15976061 -399.41503019 848.07514094 -400.35546875 847 C-426.09010644 817.44504905 -446.09882717 783.16598717 -463.5625 748.25 C-463.98192871 747.42435547 -464.40135742 746.59871094 -464.83349609 745.74804688 C-490.71322923 694.67165571 -505.63983329 637.44528863 -513.375 580.9375 C-513.4869873 580.13465576 -513.59897461 579.33181152 -513.71435547 578.50463867 C-516.03000149 560.06283377 -515.80344437 541.29961852 -515.8125 522.75 C-515.81317474 521.49743408 -515.81384949 520.24486816 -515.81454468 518.9543457 C-515.79691401 498.24704703 -515.14618207 477.80140163 -512.5625 457.25 C-512.47528687 456.55487305 -512.38807373 455.85974609 -512.29821777 455.14355469 C-503.49076677 385.94949868 -480.8532874 321.33073654 -447.5625 260.25 C-447.09134766 259.3847168 -446.62019531 258.51943359 -446.13476562 257.62792969 C-429.1589193 226.67930731 -407.20996796 199.33953017 -384.35546875 172.5703125 C-382.78181444 170.7259283 -381.2568076 168.86043263 -379.75976562 166.95263672 C-373.56905066 159.13909895 -366.73555947 152.11688224 -359.67041016 145.09716797 C-357.69068576 143.1281685 -355.72189246 141.14869273 -353.75390625 139.16796875 C-346.65738002 132.06404074 -339.44206152 125.48246831 -331.5625 119.25 C-330.3861847 118.24405395 -329.21704749 117.22958984 -328.05859375 116.203125 C-259.74984344 55.72016486 -168.30939055 21.68715902 -56.3125 2.375 C-55.55984863 2.26687988 -54.80719727 2.15875977 -54.03173828 2.04736328 C-36.15569286 -0.26867232 -17.9852522 0.00835713 0 0 Z " fill="#00FF00" transform="translate(1064.5625,48.75)"/>
</svg>
